<svg xmlns="http://www.w3.org/2000/svg" width="597.7279663085938" height="536.44775390625" viewBox="-185.2840118408203 -186.43954467773438 597.7279663085938 536.44775390625"><title>Neo4j Graph Visualization</title><desc>Created using Neo4j (http://www.neo4j.com/)</desc><g class="layer relationships"><g class="relationship" transform="translate(190.65219459175842 232.65068579833425) rotate(188.70940369430468)"><path class="outline" fill="#A5ABB6" stroke="none" d="M 25 0.5 L 80.6339509412241 0.5 L 80.6339509412241 -0.5 L 25 -0.5 Z M 113.7511384412241 0.5 L 169.3850893824482 0.5 L 169.3850893824482 3.5 L 176.3850893824482 0 L 169.3850893824482 -3.5 L 169.3850893824482 -0.5 L 113.7511384412241 -0.5 Z"/><text text-anchor="middle" pointer-events="none" font-size="8px" fill="#000000" x="97.1925446912241" y="3" transform="rotate(180 97.1925446912241 0)" font-family="sans-serif">normal</text></g><g class="relationship" transform="translate(190.65219459175842 232.65068579833425) rotate(529.4533265040973)"><path class="outline" fill="#A5ABB6" stroke="none" d="M 25 0.5 L 63.82849363053472 0.5 L 63.82849363053472 -0.5 L 25 -0.5 Z M 96.94568113053472 0.5 L 135.77417476106945 0.5 L 135.77417476106945 3.5 L 142.77417476106945 0 L 135.77417476106945 -3.5 L 135.77417476106945 -0.5 L 96.94568113053472 -0.5 Z"/><text text-anchor="middle" pointer-events="none" font-size="8px" fill="#000000" x="80.38708738053472" y="3" transform="rotate(180 80.38708738053472 0)" font-family="sans-serif">normal</text></g><g class="relationship" transform="translate(190.65219459175842 232.65068579833425) rotate(232.69272746243792)"><path class="outline" fill="#A5ABB6" stroke="none" d="M 25 0.5 L 110.87457143218626 0.5 L 110.87457143218626 -0.5 L 25 -0.5 Z M 143.99175893218626 0.5 L 229.86633036437252 0.5 L 229.86633036437252 3.5 L 236.86633036437252 0 L 229.86633036437252 -3.5 L 229.86633036437252 -0.5 L 143.99175893218626 -0.5 Z"/><text text-anchor="middle" pointer-events="none" font-size="8px" fill="#000000" x="127.43316518218626" y="3" transform="rotate(180 127.43316518218626 0)" font-family="sans-serif">normal</text></g><g class="relationship" transform="translate(190.65219459175842 232.65068579833425) rotate(317.95038510306244)"><path class="outline" fill="#A5ABB6" stroke="none" d="M 25 0.5 L 32.19010702463733 0.5 L 32.19010702463733 -0.5 L 25 -0.5 Z M 32.19010702463733 0.5 L 39.380214049274656 0.5 L 39.380214049274656 3.5 L 46.380214049274656 0 L 39.380214049274656 -3.5 L 39.380214049274656 -0.5 L 32.19010702463733 -0.5 Z"/><text text-anchor="middle" pointer-events="none" font-size="8px" fill="#000000" x="32.19010702463733" y="3" font-family="sans-serif"/></g><g class="relationship" transform="translate(190.65219459175842 232.65068579833425) rotate(501.2177262695132)"><path class="outline" fill="#A5ABB6" stroke="none" d="M 25 0.5 L 27.586286799542115 0.5 L 27.586286799542115 -0.5 L 25 -0.5 Z M 60.703474299542115 0.5 L 63.28976109908423 0.5 L 63.28976109908423 3.5 L 70.28976109908423 0 L 63.28976109908423 -3.5 L 63.28976109908423 -0.5 L 60.703474299542115 -0.5 Z"/><text text-anchor="middle" pointer-events="none" font-size="8px" fill="#000000" x="44.144880549542115" y="3" transform="rotate(180 44.144880549542115 0)" font-family="sans-serif">normal</text></g><g class="relationship" transform="translate(190.65219459175842 232.65068579833425) rotate(507.03001665640943)"><path class="outline" fill="#A5ABB6" stroke="none" d="M 25 0.5 L 61.12257198958254 0.5 L 61.12257198958254 -0.5 L 25 -0.5 Z M 94.23975948958254 0.5 L 130.36233147916508 0.5 L 130.36233147916508 3.5 L 137.36233147916508 0 L 130.36233147916508 -3.5 L 130.36233147916508 -0.5 L 94.23975948958254 -0.5 Z"/><text text-anchor="middle" pointer-events="none" font-size="8px" fill="#000000" x="77.68116573958254" y="3" transform="rotate(180 77.68116573958254 0)" font-family="sans-serif">normal</text></g><g class="relationship" transform="translate(190.65219459175842 232.65068579833425) rotate(324.19367890291966)"><path class="outline" fill="#A5ABB6" stroke="none" d="M 25 0.5 L 45.14003820617489 0.5 L 45.14003820617489 -0.5 L 25 -0.5 Z M 78.25722570617489 0.5 L 98.39726391234979 0.5 L 98.39726391234979 3.5 L 105.39726391234979 0 L 98.39726391234979 -3.5 L 98.39726391234979 -0.5 L 78.25722570617489 -0.5 Z"/><text text-anchor="middle" pointer-events="none" font-size="8px" fill="#000000" x="61.69863195617489" y="3" font-family="sans-serif">normal</text></g><g class="relationship" transform="translate(190.65219459175842 232.65068579833425) rotate(295.968836988147)"><path class="outline" fill="#A5ABB6" stroke="none" d="M 25 0.5 L 64.83924215241284 0.5 L 64.83924215241284 -0.5 L 25 -0.5 Z M 97.95642965241284 0.5 L 137.79567180482567 0.5 L 137.79567180482567 3.5 L 144.79567180482567 0 L 137.79567180482567 -3.5 L 137.79567180482567 -0.5 L 97.95642965241284 -0.5 Z"/><text text-anchor="middle" pointer-events="none" font-size="8px" fill="#000000" x="81.39783590241284" y="3" font-family="sans-serif">normal</text></g><g class="relationship" transform="translate(206.0876353820904 -156.44574529229502) rotate(480.6152701669096)"><path class="outline" fill="#A5ABB6" stroke="none" d="M 25 0.5 L 25.69083176765239 0.5 L 25.69083176765239 -0.5 L 25 -0.5 Z M 43.12833176765239 0.5 L 43.81916353530478 0.5 L 43.81916353530478 3.5 L 50.81916353530478 0 L 43.81916353530478 -3.5 L 43.81916353530478 -0.5 L 43.12833176765239 -0.5 Z"/><text text-anchor="middle" pointer-events="none" font-size="8px" fill="#000000" x="34.40958176765239" y="3" transform="rotate(180 34.40958176765239 0)" font-family="sans-serif">n…</text></g><g class="relationship" transform="translate(-128.07483082618597 193.20408394066524) rotate(343.09744645159344)"><path class="outline" fill="#A5ABB6" stroke="none" d="M 25 0.5 L 58.69295432382147 0.5 L 58.69295432382147 -0.5 L 25 -0.5 Z M 91.81014182382147 0.5 L 125.50309614764294 0.5 L 125.50309614764294 3.5 L 132.50309614764294 0 L 125.50309614764294 -3.5 L 125.50309614764294 -0.5 L 91.81014182382147 -0.5 Z"/><text text-anchor="middle" pointer-events="none" font-size="8px" fill="#000000" x="75.25154807382147" y="3" font-family="sans-serif">normal</text></g><g class="relationship" transform="translate(-128.07483082618597 193.20408394066524) rotate(364.2784160465289)"><path class="outline" fill="#A5ABB6" stroke="none" d="M 25 0.5 L 39.94065461306822 0.5 L 39.94065461306822 -0.5 L 25 -0.5 Z M 73.05784211306822 0.5 L 87.99849672613644 0.5 L 87.99849672613644 3.5 L 94.99849672613644 0 L 87.99849672613644 -3.5 L 87.99849672613644 -0.5 L 73.05784211306822 -0.5 Z"/><text text-anchor="middle" pointer-events="none" font-size="8px" fill="#000000" x="56.49924836306822" y="3" font-family="sans-serif">normal</text></g><g class="relationship" transform="translate(-65.44877866794843 291.7389649536034) rotate(301.39270087840305)"><path class="outline" fill="#A5ABB6" stroke="none" d="M 25 0.5 L 64.48052933409943 0.5 L 64.48052933409943 -0.5 L 25 -0.5 Z M 97.59771683409943 0.5 L 137.07824616819886 0.5 L 137.07824616819886 3.5 L 144.07824616819886 0 L 137.07824616819886 -3.5 L 137.07824616819886 -0.5 L 97.59771683409943 -0.5 Z"/><text text-anchor="middle" pointer-events="none" font-size="8px" fill="#000000" x="81.03912308409943" y="3" font-family="sans-serif">normal</text></g><g class="relationship" transform="translate(-65.44877866794843 291.7389649536034) rotate(302.48526637486634)"><path class="outline" fill="#A5ABB6" stroke="none" d="M 25 0.5 L 33.041277486298235 0.5 L 33.041277486298235 -0.5 L 25 -0.5 Z M 66.15846498629824 0.5 L 74.19974247259647 0.5 L 74.19974247259647 3.5 L 81.19974247259647 0 L 74.19974247259647 -3.5 L 74.19974247259647 -0.5 L 66.15846498629824 -0.5 Z"/><text text-anchor="middle" pointer-events="none" font-size="8px" fill="#000000" x="49.599871236298235" y="3" font-family="sans-serif">normal</text></g><g class="relationship" transform="translate(-108.15370018656283 249.70494032654668) rotate(321.9675990386313)"><path class="outline" fill="#A5ABB6" stroke="none" d="M 25 0.5 L 62.95788582694807 0.5 L 62.95788582694807 -0.5 L 25 -0.5 Z M 96.07507332694807 0.5 L 134.03295915389614 0.5 L 134.03295915389614 3.5 L 141.03295915389614 0 L 134.03295915389614 -3.5 L 134.03295915389614 -0.5 L 96.07507332694807 -0.5 Z"/><text text-anchor="middle" pointer-events="none" font-size="8px" fill="#000000" x="79.51647957694807" y="3" font-family="sans-serif">normal</text></g><g class="relationship" transform="translate(-108.15370018656283 249.70494032654668) rotate(334.51233453680766)"><path class="outline" fill="#A5ABB6" stroke="none" d="M 25 0.5 L 35.18977473275098 0.5 L 35.18977473275098 -0.5 L 25 -0.5 Z M 68.30696223275098 0.5 L 78.49673696550197 0.5 L 78.49673696550197 3.5 L 85.49673696550197 0 L 78.49673696550197 -3.5 L 78.49673696550197 -0.5 L 68.30696223275098 -0.5 Z"/><text text-anchor="middle" pointer-events="none" font-size="8px" fill="#000000" x="51.74836848275098" y="3" font-family="sans-serif">normal</text></g><g class="relationship" transform="translate(-156.2840109895408 -2.6460157839530893) rotate(399.9877913636773)"><path class="outline" fill="#A5ABB6" stroke="none" d="M 25 0.5 L 96.69459506487802 0.5 L 96.69459506487802 -0.5 L 25 -0.5 Z M 129.811782564878 0.5 L 201.50637762975603 0.5 L 201.50637762975603 3.5 L 208.50637762975603 0 L 201.50637762975603 -3.5 L 201.50637762975603 -0.5 L 129.811782564878 -0.5 Z"/><text text-anchor="middle" pointer-events="none" font-size="8px" fill="#000000" x="113.25318881487802" y="3" font-family="sans-serif">normal</text></g><g class="relationship" transform="translate(-156.2840109895408 -2.6460157839530893) rotate(444.44002559524915)"><path class="outline" fill="#A5ABB6" stroke="none" d="M 25 0.5 L 44.31598475987522 0.5 L 44.31598475987522 -0.5 L 25 -0.5 Z M 77.43317225987522 0.5 L 96.74915701975044 0.5 L 96.74915701975044 3.5 L 103.74915701975044 0 L 96.74915701975044 -3.5 L 96.74915701975044 -0.5 L 77.43317225987522 -0.5 Z"/><text text-anchor="middle" pointer-events="none" font-size="8px" fill="#000000" x="60.87457850987522" y="3" font-family="sans-serif">normal</text></g><g class="relationship" transform="translate(87.10796883277865 230.61072194857275) rotate(232.22265724710252)"><path class="outline" fill="#A5ABB6" stroke="none" d="M 25 0.5 L 32.57306867401809 0.5 L 32.57306867401809 -0.5 L 25 -0.5 Z M 65.69025617401809 0.5 L 73.26332484803618 0.5 L 73.26332484803618 3.5 L 80.26332484803618 0 L 73.26332484803618 -3.5 L 73.26332484803618 -0.5 L 65.69025617401809 -0.5 Z"/><text text-anchor="middle" pointer-events="none" font-size="8px" fill="#000000" x="49.13166242401809" y="3" transform="rotate(180 49.13166242401809 0)" font-family="sans-serif">normal</text></g><g class="relationship" transform="translate(87.10796883277865 230.61072194857275) rotate(196.58844178115532)"><path class="outline" fill="#A5ABB6" stroke="none" d="M 25 0.5 L 29.77481428079055 0.5 L 29.77481428079055 -0.5 L 25 -0.5 Z M 62.89200178079055 0.5 L 67.6668160615811 0.5 L 67.6668160615811 3.5 L 74.6668160615811 0 L 67.6668160615811 -3.5 L 67.6668160615811 -0.5 L 62.89200178079055 -0.5 Z"/><text text-anchor="middle" pointer-events="none" font-size="8px" fill="#000000" x="46.33340803079055" y="3" transform="rotate(180 46.33340803079055 0)" font-family="sans-serif">normal</text></g><g class="relationship" transform="translate(-143.80981009306814 125.49741848129045) rotate(367.50067557047134)"><path class="outline" fill="#A5ABB6" stroke="none" d="M 25 0.5 L 63.87663315488753 0.5 L 63.87663315488753 -0.5 L 25 -0.5 Z M 96.99382065488753 0.5 L 135.87045380977506 0.5 L 135.87045380977506 3.5 L 142.87045380977506 0 L 135.87045380977506 -3.5 L 135.87045380977506 -0.5 L 96.99382065488753 -0.5 Z"/><text text-anchor="middle" pointer-events="none" font-size="8px" fill="#000000" x="80.43522690488753" y="3" font-family="sans-serif">normal</text></g><g class="relationship" transform="translate(-143.80981009306814 125.49741848129045) rotate(389.517245969907)"><path class="outline" fill="#A5ABB6" stroke="none" d="M 25 0.5 L 57.73841838283292 0.5 L 57.73841838283292 -0.5 L 25 -0.5 Z M 90.85560588283292 0.5 L 123.59402426566584 0.5 L 123.59402426566584 3.5 L 130.59402426566584 0 L 123.59402426566584 -3.5 L 123.59402426566584 -0.5 L 90.85560588283292 -0.5 Z"/><text text-anchor="middle" pointer-events="none" font-size="8px" fill="#000000" x="74.29701213283292" y="3" font-family="sans-serif">normal</text></g><g class="relationship" transform="translate(201.65126656615394 70.33992087379954) rotate(485.55286139479347)"><path class="outline" fill="#A5ABB6" stroke="none" d="M 25 0.5 L 78.43873709300581 0.5 L 78.43873709300581 -0.5 L 25 -0.5 Z M 111.55592459300581 0.5 L 164.99466168601163 0.5 L 164.99466168601163 3.5 L 171.99466168601163 0 L 164.99466168601163 -3.5 L 164.99466168601163 -0.5 L 111.55592459300581 -0.5 Z"/><text text-anchor="middle" pointer-events="none" font-size="8px" fill="#000000" x="94.99733084300581" y="3" transform="rotate(180 94.99733084300581 0)" font-family="sans-serif">normal</text></g><g class="relationship" transform="translate(201.65126656615394 70.33992087379954) rotate(368.2994731747135)"><path class="outline" fill="#A5ABB6" stroke="none" d="M 25 0.5 L 48.12941396170169 0.5 L 48.12941396170169 -0.5 L 25 -0.5 Z M 81.24660146170169 0.5 L 104.37601542340337 0.5 L 104.37601542340337 3.5 L 111.37601542340337 0 L 104.37601542340337 -3.5 L 104.37601542340337 -0.5 L 81.24660146170169 -0.5 Z"/><text text-anchor="middle" pointer-events="none" font-size="8px" fill="#000000" x="64.68800771170169" y="3" font-family="sans-serif">normal</text></g><g class="relationship" transform="translate(201.65126656615394 70.33992087379954) rotate(507.96868943780225)"><path class="outline" fill="#A5ABB6" stroke="none" d="M 25 0.5 L 24.549255936865304 0.5 L 24.549255936865304 -0.5 L 25 -0.5 Z M 24.549255936865304 0.5 L 24.098511873730608 0.5 L 24.098511873730608 3.5 L 31.098511873730608 0 L 24.098511873730608 -3.5 L 24.098511873730608 -0.5 L 24.549255936865304 -0.5 Z"/><text text-anchor="middle" pointer-events="none" font-size="8px" fill="#000000" x="24.549255936865304" y="3" transform="rotate(180 24.549255936865304 0)" font-family="sans-serif"/></g><g class="relationship" transform="translate(201.65126656615394 70.33992087379954) rotate(334.40837947423915)"><path class="outline" fill="#A5ABB6" stroke="none" d="M 25 0.5 L 52.8763865077115 0.5 L 52.8763865077115 -0.5 L 25 -0.5 Z M 85.9935740077115 0.5 L 113.869960515423 0.5 L 113.869960515423 3.5 L 120.869960515423 0 L 113.869960515423 -3.5 L 113.869960515423 -0.5 L 85.9935740077115 -0.5 Z"/><text text-anchor="middle" pointer-events="none" font-size="8px" fill="#000000" x="69.4349802577115" y="3" font-family="sans-serif">normal</text></g><g class="relationship" transform="translate(201.65126656615394 70.33992087379954) rotate(429.8543200694544)"><path class="outline" fill="#A5ABB6" stroke="none" d="M 25 0.5 L 40.923365740942124 0.5 L 40.923365740942124 -0.5 L 25 -0.5 Z M 74.04055324094213 0.5 L 89.96391898188425 0.5 L 89.96391898188425 3.5 L 96.96391898188425 0 L 89.96391898188425 -3.5 L 89.96391898188425 -0.5 L 74.04055324094213 -0.5 Z"/><text text-anchor="middle" pointer-events="none" font-size="8px" fill="#000000" x="57.481959490942124" y="3" font-family="sans-serif">normal</text></g><g class="relationship" transform="translate(201.65126656615394 70.33992087379954) rotate(402.23496705003913)"><path class="outline" fill="#A5ABB6" stroke="none" d="M 25 0.5 L 43.929599903036326 0.5 L 43.929599903036326 -0.5 L 25 -0.5 Z M 77.04678740303632 0.5 L 95.97638730607265 0.5 L 95.97638730607265 3.5 L 102.97638730607265 0 L 95.97638730607265 -3.5 L 95.97638730607265 -0.5 L 77.04678740303632 -0.5 Z"/><text text-anchor="middle" pointer-events="none" font-size="8px" fill="#000000" x="60.488193653036326" y="3" font-family="sans-serif">normal</text></g><g class="relationship" transform="translate(201.65126656615394 70.33992087379954) rotate(368.66891926811786)"><path class="outline" fill="#A5ABB6" stroke="none" d="M 25 0.5 L 28.54176951773929 0.5 L 28.54176951773929 -0.5 L 25 -0.5 Z M 28.54176951773929 0.5 L 32.08353903547858 0.5 L 32.08353903547858 3.5 L 39.08353903547858 0 L 32.08353903547858 -3.5 L 32.08353903547858 -0.5 L 28.54176951773929 -0.5 Z"/><text text-anchor="middle" pointer-events="none" font-size="8px" fill="#000000" x="28.54176951773929" y="3" font-family="sans-serif"/></g><g class="relationship" transform="translate(201.65126656615394 70.33992087379954) rotate(453.87675081759716)"><path class="outline" fill="#A5ABB6" stroke="none" d="M 25 0.5 L 61.28291471075683 0.5 L 61.28291471075683 -0.5 L 25 -0.5 Z M 94.40010221075683 0.5 L 130.68301692151366 0.5 L 130.68301692151366 3.5 L 137.68301692151366 0 L 130.68301692151366 -3.5 L 130.68301692151366 -0.5 L 94.40010221075683 -0.5 Z"/><text text-anchor="middle" pointer-events="none" font-size="8px" fill="#000000" x="77.84150846075683" y="3" transform="rotate(180 77.84150846075683 0)" font-family="sans-serif">normal</text></g><g class="relationship" transform="translate(231.22970344709904 9.546419807434717) rotate(180.78234600424526)"><path class="outline" fill="#A5ABB6" stroke="none" d="M 25 0.5 L 111.33719301849334 0.5 L 111.33719301849334 -0.5 L 25 -0.5 Z M 144.45438051849334 0.5 L 230.79157353698668 0.5 L 230.79157353698668 3.5 L 237.79157353698668 0 L 230.79157353698668 -3.5 L 230.79157353698668 -0.5 L 144.45438051849334 -0.5 Z"/><text text-anchor="middle" pointer-events="none" font-size="8px" fill="#000000" x="127.89578676849334" y="3" transform="rotate(180 127.89578676849334 0)" font-family="sans-serif">normal</text></g><g class="relationship" transform="translate(231.22970344709904 9.546419807434717) rotate(397.3718667721364)"><path class="outline" fill="#A5ABB6" stroke="none" d="M 25 0.5 L 46.23537692495955 0.5 L 46.23537692495955 -0.5 L 25 -0.5 Z M 79.35256442495955 0.5 L 100.5879413499191 0.5 L 100.5879413499191 3.5 L 107.5879413499191 0 L 100.5879413499191 -3.5 L 100.5879413499191 -0.5 L 79.35256442495955 -0.5 Z"/><text text-anchor="middle" pointer-events="none" font-size="8px" fill="#000000" x="62.79397067495955" y="3" font-family="sans-serif">normal</text></g><g class="relationship" transform="translate(231.22970344709904 9.546419807434717) rotate(490.4274135983699)"><path class="outline" fill="#A5ABB6" stroke="none" d="M 25 0.5 L 39.415809580051906 0.5 L 39.415809580051906 -0.5 L 25 -0.5 Z M 72.5329970800519 0.5 L 86.94880666010381 0.5 L 86.94880666010381 3.5 L 93.94880666010381 0 L 86.94880666010381 -3.5 L 86.94880666010381 -0.5 L 72.5329970800519 -0.5 Z"/><text text-anchor="middle" pointer-events="none" font-size="8px" fill="#000000" x="55.974403330051906" y="3" transform="rotate(180 55.974403330051906 0)" font-family="sans-serif">normal</text></g><g class="relationship" transform="translate(231.22970344709904 9.546419807434717) rotate(358.75541586795396)"><path class="outline" fill="#A5ABB6" stroke="none" d="M 25 0.5 L 30.943965829686306 0.5 L 30.943965829686306 -0.5 L 25 -0.5 Z M 64.0611533296863 0.5 L 70.00511915937261 0.5 L 70.00511915937261 3.5 L 77.00511915937261 0 L 70.00511915937261 -3.5 L 70.00511915937261 -0.5 L 64.0611533296863 -0.5 Z"/><text text-anchor="middle" pointer-events="none" font-size="8px" fill="#000000" x="47.502559579686306" y="3" font-family="sans-serif">normal</text></g><g class="relationship" transform="translate(231.22970344709904 9.546419807434717) rotate(445.9450080184992)"><path class="outline" fill="#A5ABB6" stroke="none" d="M 25 0.5 L 67.80920270588474 0.5 L 67.80920270588474 -0.5 L 25 -0.5 Z M 100.92639020588474 0.5 L 143.7355929117695 0.5 L 143.7355929117695 3.5 L 150.7355929117695 0 L 143.7355929117695 -3.5 L 143.7355929117695 -0.5 L 100.92639020588474 -0.5 Z"/><text text-anchor="middle" pointer-events="none" font-size="8px" fill="#000000" x="84.36779645588474" y="3" font-family="sans-serif">normal</text></g><g class="relationship" transform="translate(231.22970344709904 9.546419807434717) rotate(371.36291038878755)"><path class="outline" fill="#A5ABB6" stroke="none" d="M 25 0.5 L 57.57015153764547 0.5 L 57.57015153764547 -0.5 L 25 -0.5 Z M 90.68733903764547 0.5 L 123.25749057529094 0.5 L 123.25749057529094 3.5 L 130.25749057529094 0 L 123.25749057529094 -3.5 L 123.25749057529094 -0.5 L 90.68733903764547 -0.5 Z"/><text text-anchor="middle" pointer-events="none" font-size="8px" fill="#000000" x="74.12874528764547" y="3" font-family="sans-serif">normal</text></g><g class="relationship" transform="translate(231.22970344709904 9.546419807434717) rotate(327.93619433182675)"><path class="outline" fill="#A5ABB6" stroke="none" d="M 25 0.5 L 60.397979134461494 0.5 L 60.397979134461494 -0.5 L 25 -0.5 Z M 93.5151666344615 0.5 L 128.913145768923 0.5 L 128.913145768923 3.5 L 135.913145768923 0 L 128.913145768923 -3.5 L 128.913145768923 -0.5 L 93.5151666344615 -0.5 Z"/><text text-anchor="middle" pointer-events="none" font-size="8px" fill="#000000" x="76.9565728844615" y="3" font-family="sans-serif">normal</text></g><g class="relationship" transform="translate(231.22970344709904 9.546419807434717) rotate(300.24712435132534)"><path class="outline" fill="#A5ABB6" stroke="none" d="M 25 0.5 L 35.41481026696331 0.5 L 35.41481026696331 -0.5 L 25 -0.5 Z M 68.53199776696331 0.5 L 78.94680803392662 0.5 L 78.94680803392662 3.5 L 85.94680803392662 0 L 78.94680803392662 -3.5 L 78.94680803392662 -0.5 L 68.53199776696331 -0.5 Z"/><text text-anchor="middle" pointer-events="none" font-size="8px" fill="#000000" x="51.97340401696331" y="3" font-family="sans-serif">normal</text></g><g class="relationship" transform="translate(231.22970344709904 9.546419807434717) rotate(479.58016512740903)"><path class="outline" fill="#A5ABB6" stroke="none" d="M 25 0.5 L 159.0112019869375 0.5 L 159.0112019869375 -0.5 L 25 -0.5 Z M 192.1283894869375 0.5 L 326.139591473875 0.5 L 326.139591473875 3.5 L 333.139591473875 0 L 326.139591473875 -3.5 L 326.139591473875 -0.5 L 192.1283894869375 -0.5 Z"/><text text-anchor="middle" pointer-events="none" font-size="8px" fill="#000000" x="175.5697957369375" y="3" transform="rotate(180 175.5697957369375 0)" font-family="sans-serif">normal</text></g><g class="relationship" transform="translate(231.22970344709904 9.546419807434717) rotate(426.0625607884324)"><path class="outline" fill="#A5ABB6" stroke="none" d="M 25 0.5 L 60.25731494351419 0.5 L 60.25731494351419 -0.5 L 25 -0.5 Z M 93.37450244351419 0.5 L 128.63181738702838 0.5 L 128.63181738702838 3.5 L 135.63181738702838 0 L 128.63181738702838 -3.5 L 128.63181738702838 -0.5 L 93.37450244351419 -0.5 Z"/><text text-anchor="middle" pointer-events="none" font-size="8px" fill="#000000" x="76.81590869351419" y="3" font-family="sans-serif">normal</text></g><g class="relationship" transform="translate(231.22970344709904 9.546419807434717) rotate(261.38713896331336)"><path class="outline" fill="#A5ABB6" stroke="none" d="M 25 0.5 L 63.884128479329476 0.5 L 63.884128479329476 -0.5 L 25 -0.5 Z M 97.00131597932948 0.5 L 135.88544445865895 0.5 L 135.88544445865895 3.5 L 142.88544445865895 0 L 135.88544445865895 -3.5 L 135.88544445865895 -0.5 L 97.00131597932948 -0.5 Z"/><text text-anchor="middle" pointer-events="none" font-size="8px" fill="#000000" x="80.44272222932948" y="3" transform="rotate(180 80.44272222932948 0)" font-family="sans-serif">normal</text></g><g class="relationship" transform="translate(231.22970344709904 9.546419807434717) rotate(288.8582348542152)"><path class="outline" fill="#A5ABB6" stroke="none" d="M 25 0.5 L 68.1704103006037 0.5 L 68.1704103006037 -0.5 L 25 -0.5 Z M 101.2875978006037 0.5 L 144.4580081012074 0.5 L 144.4580081012074 3.5 L 151.4580081012074 0 L 144.4580081012074 -3.5 L 144.4580081012074 -0.5 L 101.2875978006037 -0.5 Z"/><text text-anchor="middle" pointer-events="none" font-size="8px" fill="#000000" x="84.7290040506037" y="3" font-family="sans-serif">normal</text></g><g class="relationship" transform="translate(231.22970344709904 9.546419807434717) rotate(220.4515637850974)"><path class="outline" fill="#A5ABB6" stroke="none" d="M 25 0.5 L 27.065884199530423 0.5 L 27.065884199530423 -0.5 L 25 -0.5 Z M 52.64400919953042 0.5 L 54.709893399060846 0.5 L 54.709893399060846 3.5 L 61.709893399060846 0 L 54.709893399060846 -3.5 L 54.709893399060846 -0.5 L 52.64400919953042 -0.5 Z"/><text text-anchor="middle" pointer-events="none" font-size="8px" fill="#000000" x="39.85494669953042" y="3" transform="rotate(180 39.85494669953042 0)" font-family="sans-serif">nor…</text></g><g class="relationship" transform="translate(231.22970344709904 9.546419807434717) rotate(424.3882060347532)"><path class="outline" fill="#A5ABB6" stroke="none" d="M 25 0.5 L 26.845828996525725 0.5 L 26.845828996525725 -0.5 L 25 -0.5 Z M 44.283328996525725 0.5 L 46.12915799305145 0.5 L 46.12915799305145 3.5 L 53.12915799305145 0 L 46.12915799305145 -3.5 L 46.12915799305145 -0.5 L 44.283328996525725 -0.5 Z"/><text text-anchor="middle" pointer-events="none" font-size="8px" fill="#000000" x="35.564578996525725" y="3" font-family="sans-serif">n…</text></g><g class="relationship" transform="translate(231.22970344709904 9.546419807434717) rotate(460.3081022312403)"><path class="outline" fill="#A5ABB6" stroke="none" d="M 25 0.5 L 93.3235562210639 0.5 L 93.3235562210639 -0.5 L 25 -0.5 Z M 126.4407437210639 0.5 L 194.7642999421278 0.5 L 194.7642999421278 3.5 L 201.7642999421278 0 L 194.7642999421278 -3.5 L 194.7642999421278 -0.5 L 126.4407437210639 -0.5 Z"/><text text-anchor="middle" pointer-events="none" font-size="8px" fill="#000000" x="109.8821499710639" y="3" transform="rotate(180 109.8821499710639 0)" font-family="sans-serif">normal</text></g><g class="relationship" transform="translate(231.22970344709904 9.546419807434717) rotate(475.9447495120027)"><path class="outline" fill="#A5ABB6" stroke="none" d="M 25 0.5 L 30.30360077057677 0.5 L 30.30360077057677 -0.5 L 25 -0.5 Z M 30.30360077057677 0.5 L 35.60720154115354 0.5 L 35.60720154115354 3.5 L 42.60720154115354 0 L 35.60720154115354 -3.5 L 35.60720154115354 -0.5 L 30.30360077057677 -0.5 Z"/><text text-anchor="middle" pointer-events="none" font-size="8px" fill="#000000" x="30.30360077057677" y="3" transform="rotate(180 30.30360077057677 0)" font-family="sans-serif"/></g><g class="relationship" transform="translate(288.26581838702623 -157.43953833158125) rotate(511.25867280904424)"><path class="outline" fill="#A5ABB6" stroke="none" d="M 25 0.5 L 48.82298162512174 0.5 L 48.82298162512174 -0.5 L 25 -0.5 Z M 81.94016912512174 0.5 L 105.76315075024348 0.5 L 105.76315075024348 3.5 L 112.76315075024348 0 L 105.76315075024348 -3.5 L 105.76315075024348 -0.5 L 81.94016912512174 -0.5 Z"/><text text-anchor="middle" pointer-events="none" font-size="8px" fill="#000000" x="65.38157537512174" y="3" transform="rotate(180 65.38157537512174 0)" font-family="sans-serif">normal</text></g><g class="relationship" transform="translate(288.26581838702623 -157.43953833158125) rotate(450.9251217339378)"><path class="outline" fill="#A5ABB6" stroke="none" d="M 25 0.5 L 32.076317940559264 0.5 L 32.076317940559264 -0.5 L 25 -0.5 Z M 32.076317940559264 0.5 L 39.15263588111853 0.5 L 39.15263588111853 3.5 L 46.15263588111853 0 L 39.15263588111853 -3.5 L 39.15263588111853 -0.5 L 32.076317940559264 -0.5 Z"/><text text-anchor="middle" pointer-events="none" font-size="8px" fill="#000000" x="32.076317940559264" y="3" transform="rotate(180 32.076317940559264 0)" font-family="sans-serif"/></g><g class="relationship" transform="translate(288.26581838702623 -157.43953833158125) rotate(539.3071473559173)"><path class="outline" fill="#A5ABB6" stroke="none" d="M 25 0.5 L 26.330377164535854 0.5 L 26.330377164535854 -0.5 L 25 -0.5 Z M 48.853814664535854 0.5 L 50.18419182907171 0.5 L 50.18419182907171 3.5 L 57.18419182907171 0 L 50.18419182907171 -3.5 L 50.18419182907171 -0.5 L 48.853814664535854 -0.5 Z"/><text text-anchor="middle" pointer-events="none" font-size="8px" fill="#000000" x="37.592095914535854" y="3" transform="rotate(180 37.592095914535854 0)" font-family="sans-serif">no…</text></g><g class="relationship" transform="translate(116.3707967989035 292.3366348337663) rotate(237.10281895006807)"><path class="outline" fill="#A5ABB6" stroke="none" d="M 25 0.5 L 66.24305086066697 0.5 L 66.24305086066697 -0.5 L 25 -0.5 Z M 99.36023836066697 0.5 L 140.60328922133394 0.5 L 140.60328922133394 3.5 L 147.60328922133394 0 L 140.60328922133394 -3.5 L 140.60328922133394 -0.5 L 99.36023836066697 -0.5 Z"/><text text-anchor="middle" pointer-events="none" font-size="8px" fill="#000000" x="82.80164461066697" y="3" transform="rotate(180 82.80164461066697 0)" font-family="sans-serif">normal</text></g><g class="relationship" transform="translate(243.65665164238712 184.84208311546635) rotate(189.61168663037336)"><path class="outline" fill="#A5ABB6" stroke="none" d="M 25 0.5 L 92.03113239497566 0.5 L 92.03113239497566 -0.5 L 25 -0.5 Z M 125.14831989497566 0.5 L 192.1794522899513 0.5 L 192.1794522899513 3.5 L 199.1794522899513 0 L 192.1794522899513 -3.5 L 192.1794522899513 -0.5 L 125.14831989497566 -0.5 Z"/><text text-anchor="middle" pointer-events="none" font-size="8px" fill="#000000" x="108.58972614497566" y="3" transform="rotate(180 108.58972614497566 0)" font-family="sans-serif">normal</text></g><g class="relationship" transform="translate(-78.87828144662781 -32.88657010924534) rotate(399.3700314262139)"><path class="outline" fill="#A5ABB6" stroke="none" d="M 25 0.5 L 27.118952327339354 0.5 L 27.118952327339354 -0.5 L 25 -0.5 Z M 27.118952327339354 0.5 L 29.237904654678708 0.5 L 29.237904654678708 3.5 L 36.23790465467871 0 L 29.237904654678708 -3.5 L 29.237904654678708 -0.5 L 27.118952327339354 -0.5 Z"/><text text-anchor="middle" pointer-events="none" font-size="8px" fill="#000000" x="27.118952327339354" y="3" font-family="sans-serif"/></g><g class="relationship" transform="translate(165.2474009118742 -46.71139178728124) rotate(342.005549734326)"><path class="outline" fill="#A5ABB6" stroke="none" d="M 25 0.5 L 44.0100342162349 0.5 L 44.0100342162349 -0.5 L 25 -0.5 Z M 77.1272217162349 0.5 L 96.1372559324698 0.5 L 96.1372559324698 3.5 L 103.1372559324698 0 L 96.1372559324698 -3.5 L 96.1372559324698 -0.5 L 77.1272217162349 -0.5 Z"/><text text-anchor="middle" pointer-events="none" font-size="8px" fill="#000000" x="60.5686279662349" y="3" font-family="sans-serif">normal</text></g><g class="relationship" transform="translate(165.2474009118742 -46.71139178728124) rotate(290.4139403034868)"><path class="outline" fill="#A5ABB6" stroke="none" d="M 25 0.5 L 38.48530663839565 0.5 L 38.48530663839565 -0.5 L 25 -0.5 Z M 71.60249413839566 0.5 L 85.0878007767913 0.5 L 85.0878007767913 3.5 L 92.0878007767913 0 L 85.0878007767913 -3.5 L 85.0878007767913 -0.5 L 71.60249413839566 -0.5 Z"/><text text-anchor="middle" pointer-events="none" font-size="8px" fill="#000000" x="55.04390038839565" y="3" font-family="sans-serif">normal</text></g><g class="relationship" transform="translate(54.437377573960276 321.00819995620344) rotate(259.6153028035135)"><path class="outline" fill="#A5ABB6" stroke="none" d="M 25 0.5 L 68.18554005548846 0.5 L 68.18554005548846 -0.5 L 25 -0.5 Z M 101.30272755548846 0.5 L 144.48826761097692 0.5 L 144.48826761097692 3.5 L 151.48826761097692 0 L 144.48826761097692 -3.5 L 144.48826761097692 -0.5 L 101.30272755548846 -0.5 Z"/><text text-anchor="middle" pointer-events="none" font-size="8px" fill="#000000" x="84.74413380548846" y="3" transform="rotate(180 84.74413380548846 0)" font-family="sans-serif">normal</text></g><g class="relationship" transform="translate(54.437377573960276 321.00819995620344) rotate(242.13039761864053)"><path class="outline" fill="#A5ABB6" stroke="none" d="M 25 0.5 L 47.16426237128229 0.5 L 47.16426237128229 -0.5 L 25 -0.5 Z M 80.28144987128229 0.5 L 102.44571224256458 0.5 L 102.44571224256458 3.5 L 109.44571224256458 0 L 102.44571224256458 -3.5 L 102.44571224256458 -0.5 L 80.28144987128229 -0.5 Z"/><text text-anchor="middle" pointer-events="none" font-size="8px" fill="#000000" x="63.72285612128229" y="3" transform="rotate(180 63.72285612128229 0)" font-family="sans-serif">normal</text></g><g class="relationship" transform="translate(54.437377573960276 321.00819995620344) rotate(289.8703841873316)"><path class="outline" fill="#A5ABB6" stroke="none" d="M 25 0.5 L 28.001450890378912 0.5 L 28.001450890378912 -0.5 L 25 -0.5 Z M 61.11863839037891 0.5 L 64.12008928075782 0.5 L 64.12008928075782 3.5 L 71.12008928075782 0 L 64.12008928075782 -3.5 L 64.12008928075782 -0.5 L 61.11863839037891 -0.5 Z"/><text text-anchor="middle" pointer-events="none" font-size="8px" fill="#000000" x="44.56004464037891" y="3" font-family="sans-serif">normal</text></g><g class="relationship" transform="translate(-9.087965381554609 312.2352459769305) rotate(280.8906225569872)"><path class="outline" fill="#A5ABB6" stroke="none" d="M 25 0.5 L 63.86508826098553 0.5 L 63.86508826098553 -0.5 L 25 -0.5 Z M 96.98227576098553 0.5 L 135.84736402197106 0.5 L 135.84736402197106 3.5 L 142.84736402197106 0 L 135.84736402197106 -3.5 L 135.84736402197106 -0.5 L 96.98227576098553 -0.5 Z"/><text text-anchor="middle" pointer-events="none" font-size="8px" fill="#000000" x="80.42368201098553" y="3" font-family="sans-serif">normal</text></g><g class="relationship" transform="translate(-9.087965381554609 312.2352459769305) rotate(270.35249324847746)"><path class="outline" fill="#A5ABB6" stroke="none" d="M 25 0.5 L 34.98190070657916 0.5 L 34.98190070657916 -0.5 L 25 -0.5 Z M 68.09908820657915 0.5 L 78.08098891315832 0.5 L 78.08098891315832 3.5 L 85.08098891315832 0 L 78.08098891315832 -3.5 L 78.08098891315832 -0.5 L 68.09908820657915 -0.5 Z"/><text text-anchor="middle" pointer-events="none" font-size="8px" fill="#000000" x="51.54049445657916" y="3" font-family="sans-serif">normal</text></g><g class="relationship" transform="translate(-46.590265829094186 -119.39654326593227) rotate(443.15257685254636)"><path class="outline" fill="#A5ABB6" stroke="none" d="M 25 0.5 L 43.06907715668004 0.5 L 43.06907715668004 -0.5 L 25 -0.5 Z M 76.18626465668004 0.5 L 94.25534181336008 0.5 L 94.25534181336008 3.5 L 101.25534181336008 0 L 94.25534181336008 -3.5 L 94.25534181336008 -0.5 L 76.18626465668004 -0.5 Z"/><text text-anchor="middle" pointer-events="none" font-size="8px" fill="#000000" x="59.62767090668004" y="3" font-family="sans-serif">normal</text></g><g class="relationship" transform="translate(-46.590265829094186 -119.39654326593227) rotate(421.3546251060509)"><path class="outline" fill="#A5ABB6" stroke="none" d="M 25 0.5 L 61.84606737731947 0.5 L 61.84606737731947 -0.5 L 25 -0.5 Z M 94.96325487731947 0.5 L 131.80932225463894 0.5 L 131.80932225463894 3.5 L 138.80932225463894 0 L 131.80932225463894 -3.5 L 131.80932225463894 -0.5 L 94.96325487731947 -0.5 Z"/><text text-anchor="middle" pointer-events="none" font-size="8px" fill="#000000" x="78.40466112731947" y="3" font-family="sans-serif">normal</text></g><g class="relationship" transform="translate(-46.590265829094186 -119.39654326593227) rotate(470.4670239309512)"><path class="outline" fill="#A5ABB6" stroke="none" d="M 25 0.5 L 26.1109075687515 0.5 L 26.1109075687515 -0.5 L 25 -0.5 Z M 59.2280950687515 0.5 L 60.339002637503 0.5 L 60.339002637503 3.5 L 67.339002637503 0 L 60.339002637503 -3.5 L 60.339002637503 -0.5 L 59.2280950687515 -0.5 Z"/><text text-anchor="middle" pointer-events="none" font-size="8px" fill="#000000" x="42.6695013187515" y="3" transform="rotate(180 42.6695013187515 0)" font-family="sans-serif">normal</text></g><g class="relationship" transform="translate(25.71237473385166 263.3594718700621) rotate(268.4743600113023)"><path class="outline" fill="#A5ABB6" stroke="none" d="M 25 0.5 L 37.93626473697211 0.5 L 37.93626473697211 -0.5 L 25 -0.5 Z M 71.0534522369721 0.5 L 83.98971697394423 0.5 L 83.98971697394423 3.5 L 90.98971697394423 0 L 83.98971697394423 -3.5 L 83.98971697394423 -0.5 L 71.0534522369721 -0.5 Z"/><text text-anchor="middle" pointer-events="none" font-size="8px" fill="#000000" x="54.49485848697211" y="3" transform="rotate(180 54.49485848697211 0)" font-family="sans-serif">normal</text></g><g class="relationship" transform="translate(25.71237473385166 263.3594718700621) rotate(257.4606985244741)"><path class="outline" fill="#A5ABB6" stroke="none" d="M 25 0.5 L 111.7868912031845 0.5 L 111.7868912031845 -0.5 L 25 -0.5 Z M 144.9040787031845 0.5 L 231.690969906369 0.5 L 231.690969906369 3.5 L 238.690969906369 0 L 231.690969906369 -3.5 L 231.690969906369 -0.5 L 144.9040787031845 -0.5 Z"/><text text-anchor="middle" pointer-events="none" font-size="8px" fill="#000000" x="128.3454849531845" y="3" transform="rotate(180 128.3454849531845 0)" font-family="sans-serif">normal</text></g><g class="relationship" transform="translate(-8.410732940837747 202.15634029414255) rotate(299.5487085566844)"><path class="outline" fill="#A5ABB6" stroke="none" d="M 25 0.5 L 27.965199995547252 0.5 L 27.965199995547252 -0.5 L 25 -0.5 Z M 27.965199995547252 0.5 L 30.930399991094504 0.5 L 30.930399991094504 3.5 L 37.930399991094504 0 L 30.930399991094504 -3.5 L 30.930399991094504 -0.5 L 27.965199995547252 -0.5 Z"/><text text-anchor="middle" pointer-events="none" font-size="8px" fill="#000000" x="27.965199995547252" y="3" font-family="sans-serif"/></g><g class="relationship" transform="translate(265.00270208106866 79.99888528574911) rotate(461.5081130872617)"><path class="outline" fill="#A5ABB6" stroke="none" d="M 25 0.5 L 33.4384856106809 0.5 L 33.4384856106809 -0.5 L 25 -0.5 Z M 66.5556731106809 0.5 L 74.9941587213618 0.5 L 74.9941587213618 3.5 L 81.9941587213618 0 L 74.9941587213618 -3.5 L 74.9941587213618 -0.5 L 66.5556731106809 -0.5 Z"/><text text-anchor="middle" pointer-events="none" font-size="8px" fill="#000000" x="49.9970793606809" y="3" transform="rotate(180 49.9970793606809 0)" font-family="sans-serif">normal</text></g><g class="relationship" transform="translate(265.00270208106866 79.99888528574911) rotate(341.3985588832046)"><path class="outline" fill="#A5ABB6" stroke="none" d="M 25 0.5 L 42.42622785484369 0.5 L 42.42622785484369 -0.5 L 25 -0.5 Z M 75.54341535484369 0.5 L 92.96964320968738 0.5 L 92.96964320968738 3.5 L 99.96964320968738 0 L 92.96964320968738 -3.5 L 92.96964320968738 -0.5 L 75.54341535484369 -0.5 Z"/><text text-anchor="middle" pointer-events="none" font-size="8px" fill="#000000" x="58.98482160484369" y="3" font-family="sans-serif">normal</text></g><g class="relationship" transform="translate(265.00270208106866 79.99888528574911) rotate(427.6468869329095)"><path class="outline" fill="#A5ABB6" stroke="none" d="M 25 0.5 L 26.522072158357503 0.5 L 26.522072158357503 -0.5 L 25 -0.5 Z M 49.0455096583575 0.5 L 50.567581816715006 0.5 L 50.567581816715006 3.5 L 57.567581816715006 0 L 50.567581816715006 -3.5 L 50.567581816715006 -0.5 L 49.0455096583575 -0.5 Z"/><text text-anchor="middle" pointer-events="none" font-size="8px" fill="#000000" x="37.7837909083575" y="3" font-family="sans-serif">no…</text></g><g class="relationship" transform="translate(-88.51973292163771 148.1849155826231) rotate(359.6009795657242)"><path class="outline" fill="#A5ABB6" stroke="none" d="M 25 0.5 L 35.51473554111412 0.5 L 35.51473554111412 -0.5 L 25 -0.5 Z M 68.63192304111412 0.5 L 79.14665858222824 0.5 L 79.14665858222824 3.5 L 86.14665858222824 0 L 79.14665858222824 -3.5 L 79.14665858222824 -0.5 L 68.63192304111412 -0.5 Z"/><text text-anchor="middle" pointer-events="none" font-size="8px" fill="#000000" x="52.07332929111412" y="3" font-family="sans-serif">normal</text></g><g class="relationship" transform="translate(-88.51973292163771 148.1849155826231) rotate(393.9691286697193)"><path class="outline" fill="#A5ABB6" stroke="none" d="M 25 0.5 L 28.238317546984156 0.5 L 28.238317546984156 -0.5 L 25 -0.5 Z M 61.355505046984156 0.5 L 64.59382259396831 0.5 L 64.59382259396831 3.5 L 71.59382259396831 0 L 64.59382259396831 -3.5 L 64.59382259396831 -0.5 L 61.355505046984156 -0.5 Z"/><text text-anchor="middle" pointer-events="none" font-size="8px" fill="#000000" x="44.796911296984156" y="3" font-family="sans-serif">normal</text></g><g class="relationship" transform="translate(154.09328283504942 100.09359657746838) rotate(520.2055927941966)"><path class="outline" fill="#A5ABB6" stroke="none" d="M 25 0.5 L 49.803835920226405 0.5 L 49.803835920226405 -0.5 L 25 -0.5 Z M 82.9210234202264 0.5 L 107.72485934045281 0.5 L 107.72485934045281 3.5 L 114.72485934045281 0 L 107.72485934045281 -3.5 L 107.72485934045281 -0.5 L 82.9210234202264 -0.5 Z"/><text text-anchor="middle" pointer-events="none" font-size="8px" fill="#000000" x="66.3624296702264" y="3" transform="rotate(180 66.3624296702264 0)" font-family="sans-serif">normal</text></g><g class="relationship" transform="translate(-67.33757602817003 80.94771152068144) rotate(396.45673251995674)"><path class="outline" fill="#A5ABB6" stroke="none" d="M 25 0.5 L 35.86653099060297 0.5 L 35.86653099060297 -0.5 L 25 -0.5 Z M 68.98371849060297 0.5 L 79.85024948120594 0.5 L 79.85024948120594 3.5 L 86.85024948120594 0 L 79.85024948120594 -3.5 L 79.85024948120594 -0.5 L 68.98371849060297 -0.5 Z"/><text text-anchor="middle" pointer-events="none" font-size="8px" fill="#000000" x="52.42512474060297" y="3" font-family="sans-serif">normal</text></g><g class="relationship" transform="translate(-67.33757602817003 80.94771152068144) rotate(424.0728113514411)"><path class="outline" fill="#A5ABB6" stroke="none" d="M 25 0.5 L 47.32817150361228 0.5 L 47.32817150361228 -0.5 L 25 -0.5 Z M 80.44535900361228 0.5 L 102.77353050722456 0.5 L 102.77353050722456 3.5 L 109.77353050722456 0 L 102.77353050722456 -3.5 L 102.77353050722456 -0.5 L 80.44535900361228 -0.5 Z"/><text text-anchor="middle" pointer-events="none" font-size="8px" fill="#000000" x="63.88676525361228" y="3" font-family="sans-serif">normal</text></g><g class="relationship" transform="translate(-67.33757602817003 80.94771152068144) rotate(509.77660967839205)"><path class="outline" fill="#A5ABB6" stroke="none" d="M 25 0.5 L 27.96214927197495 0.5 L 27.96214927197495 -0.5 L 25 -0.5 Z M 53.54027427197495 0.5 L 56.5024235439499 0.5 L 56.5024235439499 3.5 L 63.5024235439499 0 L 56.5024235439499 -3.5 L 56.5024235439499 -0.5 L 53.54027427197495 -0.5 Z"/><text text-anchor="middle" pointer-events="none" font-size="8px" fill="#000000" x="40.75121177197495" y="3" transform="rotate(180 40.75121177197495 0)" font-family="sans-serif">nor…</text></g><g class="relationship" transform="translate(-67.33757602817003 80.94771152068144) rotate(330.31788759138124)"><path class="outline" fill="#A5ABB6" stroke="none" d="M 25 0.5 L 37.07593382808968 0.5 L 37.07593382808968 -0.5 L 25 -0.5 Z M 70.19312132808969 0.5 L 82.26905515617936 0.5 L 82.26905515617936 3.5 L 89.26905515617936 0 L 82.26905515617936 -3.5 L 82.26905515617936 -0.5 L 70.19312132808969 -0.5 Z"/><text text-anchor="middle" pointer-events="none" font-size="8px" fill="#000000" x="53.63452757808968" y="3" font-family="sans-serif">normal</text></g><g class="relationship" transform="translate(-67.33757602817003 80.94771152068144) rotate(264.2110396438913)"><path class="outline" fill="#A5ABB6" stroke="none" d="M 25 0.5 L 37.15030318866922 0.5 L 37.15030318866922 -0.5 L 25 -0.5 Z M 70.26749068866923 0.5 L 82.41779387733844 0.5 L 82.41779387733844 3.5 L 89.41779387733844 0 L 82.41779387733844 -3.5 L 82.41779387733844 -0.5 L 70.26749068866923 -0.5 Z"/><text text-anchor="middle" pointer-events="none" font-size="8px" fill="#000000" x="53.70889693866922" y="3" transform="rotate(180 53.70889693866922 0)" font-family="sans-serif">normal</text></g><g class="relationship" transform="translate(31.93779680731984 24.36310836169092) rotate(454.3285018612699)"><path class="outline" fill="#A5ABB6" stroke="none" d="M 25 0.5 L 41.641273877049144 0.5 L 41.641273877049144 -0.5 L 25 -0.5 Z M 74.75846137704914 0.5 L 91.39973525409829 0.5 L 91.39973525409829 3.5 L 98.39973525409829 0 L 91.39973525409829 -3.5 L 91.39973525409829 -0.5 L 74.75846137704914 -0.5 Z"/><text text-anchor="middle" pointer-events="none" font-size="8px" fill="#000000" x="58.199867627049144" y="3" transform="rotate(180 58.199867627049144 0)" font-family="sans-serif">normal</text></g><g class="relationship" transform="translate(-31.537372285373763 5.958240178377551) rotate(429.04837246885484)"><path class="outline" fill="#A5ABB6" stroke="none" d="M 25 0.5 L 55.675028660197356 0.5 L 55.675028660197356 -0.5 L 25 -0.5 Z M 88.79221616019736 0.5 L 119.46724482039471 0.5 L 119.46724482039471 3.5 L 126.46724482039471 0 L 119.46724482039471 -3.5 L 119.46724482039471 -0.5 L 88.79221616019736 -0.5 Z"/><text text-anchor="middle" pointer-events="none" font-size="8px" fill="#000000" x="72.23362241019736" y="3" font-family="sans-serif">normal</text></g><g class="relationship" transform="translate(-31.537372285373763 5.958240178377551) rotate(443.2773427377154)"><path class="outline" fill="#A5ABB6" stroke="none" d="M 25 0.5 L 78.71961226783571 0.5 L 78.71961226783571 -0.5 L 25 -0.5 Z M 111.83679976783571 0.5 L 165.55641203567143 0.5 L 165.55641203567143 3.5 L 172.55641203567143 0 L 165.55641203567143 -3.5 L 165.55641203567143 -0.5 L 111.83679976783571 -0.5 Z"/><text text-anchor="middle" pointer-events="none" font-size="8px" fill="#000000" x="95.27820601783571" y="3" font-family="sans-serif">normal</text></g></g><g class="layer nodes"><g class="node" transform="translate(190.65219459175842,232.65068579833425)"><circle class="outline" cx="0" cy="0" r="25" fill="#FFE081" stroke="#9AA1AC" stroke-width="2px"/><text text-anchor="middle" pointer-events="none" font-family="sans-serif" dy="1.5625" font-size="25" fill="#FFFFFF"/><text text-anchor="middle" pointer-events="none" y="5" font-size="10px" fill="#FFFFFF" font-family="sans-serif"> 002</text></g><g class="node" transform="translate(206.0876353820904,-156.44574529229502)"><circle class="outline" cx="0" cy="0" r="25" fill="#C990C0" stroke="#b261a5" stroke-width="2px"/><text text-anchor="middle" pointer-events="none" font-family="sans-serif" dy="1.5625" font-size="25" fill="#FFFFFF"/><text text-anchor="middle" pointer-events="none" y="5" font-size="10px" fill="#FFFFFF" font-family="sans-serif"> 006</text></g><g class="node" transform="translate(287.1170079456296,-86.29617724004459)"><circle class="outline" cx="0" cy="0" r="25" fill="#C990C0" stroke="#b261a5" stroke-width="2px"/><text text-anchor="middle" pointer-events="none" font-family="sans-serif" dy="1.5625" font-size="25" fill="#FFFFFF"/><text text-anchor="middle" pointer-events="none" y="5" font-size="10px" fill="#FFFFFF" font-family="sans-serif"> 010</text></g><g class="node" transform="translate(-128.07483082618597,193.20408394066524)"><circle class="outline" cx="0" cy="0" r="25" fill="#F16667" stroke="#eb2728" stroke-width="2px"/><text text-anchor="middle" pointer-events="none" font-family="sans-serif" dy="1.5625" font-size="25" fill="#FFFFFF"/><text text-anchor="middle" pointer-events="none" y="5" font-size="10px" fill="#FFFFFF" font-family="sans-serif"> 014</text></g><g class="node" transform="translate(-65.44877866794843,291.7389649536034)"><circle class="outline" cx="0" cy="0" r="25" fill="#F16667" stroke="#eb2728" stroke-width="2px"/><text text-anchor="middle" pointer-events="none" font-family="sans-serif" dy="1.5625" font-size="25" fill="#FFFFFF"/><text text-anchor="middle" pointer-events="none" y="5" font-size="10px" fill="#FFFFFF" font-family="sans-serif"> 018</text></g><g class="node" transform="translate(-108.15370018656283,249.70494032654668)"><circle class="outline" cx="0" cy="0" r="25" fill="#F16667" stroke="#eb2728" stroke-width="2px"/><text text-anchor="middle" pointer-events="none" font-family="sans-serif" dy="1.5625" font-size="25" fill="#FFFFFF"/><text text-anchor="middle" pointer-events="none" y="5" font-size="10px" fill="#FFFFFF" font-family="sans-serif"> 022</text></g><g class="node" transform="translate(-156.2840109895408,-2.6460157839530893)"><circle class="outline" cx="0" cy="0" r="25" fill="#569480" stroke="#447666" stroke-width="2px"/><text text-anchor="middle" pointer-events="none" font-family="sans-serif" dy="1.5625" font-size="25" fill="#FFFFFF"/><text text-anchor="middle" pointer-events="none" y="5" font-size="10px" fill="#FFFFFF" font-family="sans-serif"> 026</text></g><g class="node" transform="translate(87.10796883277865,230.61072194857275)"><circle class="outline" cx="0" cy="0" r="25" fill="#F16667" stroke="#eb2728" stroke-width="2px"/><text text-anchor="middle" pointer-events="none" font-family="sans-serif" dy="1.5625" font-size="25" fill="#FFFFFF"/><text text-anchor="middle" pointer-events="none" y="5" font-size="10px" fill="#FFFFFF" font-family="sans-serif"> 030</text></g><g class="node" transform="translate(-143.80981009306814,125.49741848129045)"><circle class="outline" cx="0" cy="0" r="25" fill="#569480" stroke="#447666" stroke-width="2px"/><text text-anchor="middle" pointer-events="none" font-family="sans-serif" dy="1.5625" font-size="25" fill="#FFFFFF"/><text text-anchor="middle" pointer-events="none" y="5" font-size="10px" fill="#FFFFFF" font-family="sans-serif"> 029</text></g><g class="node" transform="translate(22.624230344716302,147.41087201681881)"><circle class="outline" cx="0" cy="0" r="25" fill="#ECB5C9" stroke="#da7298" stroke-width="2px"/><text text-anchor="middle" pointer-events="none" font-family="sans-serif" dy="1.5625" font-size="25" fill="#604A0E"/><text text-anchor="middle" pointer-events="none" y="5" font-size="10px" fill="#604A0E" font-family="sans-serif"> 033</text></g><g class="node" transform="translate(201.65126656615394,70.33992087379954)"><circle class="outline" cx="0" cy="0" r="25" fill="#F79767" stroke="#f36924" stroke-width="2px"/><text text-anchor="middle" pointer-events="none" font-family="sans-serif" dy="1.5625" font-size="25" fill="#FFFFFF"/><text text-anchor="middle" pointer-events="none" y="5" font-size="10px" fill="#FFFFFF" font-family="sans-serif"> 001</text></g><g class="node" transform="translate(231.22970344709904,9.546419807434717)"><circle class="outline" cx="0" cy="0" r="25" fill="#57C7E3" stroke="#23b3d7" stroke-width="2px"/><text text-anchor="middle" pointer-events="none" font-family="sans-serif" dy="1.5625" font-size="25" fill="#FFFFFF"/><text text-anchor="middle" pointer-events="none" y="5" font-size="10px" fill="#FFFFFF" font-family="sans-serif"> 000</text></g><g class="node" transform="translate(288.26581838702623,-157.43953833158125)"><circle class="outline" cx="0" cy="0" r="25" fill="#C990C0" stroke="#b261a5" stroke-width="2px"/><text text-anchor="middle" pointer-events="none" font-family="sans-serif" dy="1.5625" font-size="25" fill="#FFFFFF"/><text text-anchor="middle" pointer-events="none" y="5" font-size="10px" fill="#FFFFFF" font-family="sans-serif"> 005</text></g><g class="node" transform="translate(116.3707967989035,292.3366348337663)"><circle class="outline" cx="0" cy="0" r="25" fill="#F16667" stroke="#eb2728" stroke-width="2px"/><text text-anchor="middle" pointer-events="none" font-family="sans-serif" dy="1.5625" font-size="25" fill="#FFFFFF"/><text text-anchor="middle" pointer-events="none" y="5" font-size="10px" fill="#FFFFFF" font-family="sans-serif"> 009</text></g><g class="node" transform="translate(243.65665164238712,184.84208311546635)"><circle class="outline" cx="0" cy="0" r="25" fill="#FFE081" stroke="#9AA1AC" stroke-width="2px"/><text text-anchor="middle" pointer-events="none" font-family="sans-serif" dy="1.5625" font-size="25" fill="#FFFFFF"/><text text-anchor="middle" pointer-events="none" y="5" font-size="10px" fill="#FFFFFF" font-family="sans-serif"> 013</text></g><g class="node" transform="translate(333.21075803405995,7.330829581534141)"><circle class="outline" cx="0" cy="0" r="25" fill="#FFE081" stroke="#9AA1AC" stroke-width="2px"/><text text-anchor="middle" pointer-events="none" font-family="sans-serif" dy="1.5625" font-size="25" fill="#FFFFFF"/><text text-anchor="middle" pointer-events="none" y="5" font-size="10px" fill="#FFFFFF" font-family="sans-serif"> 017</text></g><g class="node" transform="translate(336.5990318485651,90.02540354625674)"><circle class="outline" cx="0" cy="0" r="25" fill="#FFE081" stroke="#9AA1AC" stroke-width="2px"/><text text-anchor="middle" pointer-events="none" font-family="sans-serif" dy="1.5625" font-size="25" fill="#FFFFFF"/><text text-anchor="middle" pointer-events="none" y="5" font-size="10px" fill="#FFFFFF" font-family="sans-serif"> 021</text></g><g class="node" transform="translate(-78.87828144662781,-32.88657010924534)"><circle class="outline" cx="0" cy="0" r="25" fill="#569480" stroke="#447666" stroke-width="2px"/><text text-anchor="middle" pointer-events="none" font-family="sans-serif" dy="1.5625" font-size="25" fill="#FFFFFF"/><text text-anchor="middle" pointer-events="none" y="5" font-size="10px" fill="#FFFFFF" font-family="sans-serif"> 025</text></g><g class="node" transform="translate(165.2474009118742,-46.71139178728124)"><circle class="outline" cx="0" cy="0" r="25" fill="#C990C0" stroke="#b261a5" stroke-width="2px"/><text text-anchor="middle" pointer-events="none" font-family="sans-serif" dy="1.5625" font-size="25" fill="#FFFFFF"/><text text-anchor="middle" pointer-events="none" y="5" font-size="10px" fill="#FFFFFF" font-family="sans-serif"> 004</text></g><g class="node" transform="translate(54.437377573960276,321.00819995620344)"><circle class="outline" cx="0" cy="0" r="25" fill="#F16667" stroke="#eb2728" stroke-width="2px"/><text text-anchor="middle" pointer-events="none" font-family="sans-serif" dy="1.5625" font-size="25" fill="#FFFFFF"/><text text-anchor="middle" pointer-events="none" y="5" font-size="10px" fill="#FFFFFF" font-family="sans-serif"> 008</text></g><g class="node" transform="translate(383.443979514095,40.13567512914674)"><circle class="outline" cx="0" cy="0" r="25" fill="#FFE081" stroke="#9AA1AC" stroke-width="2px"/><text text-anchor="middle" pointer-events="none" font-family="sans-serif" dy="1.5625" font-size="25" fill="#FFFFFF"/><text text-anchor="middle" pointer-events="none" y="5" font-size="10px" fill="#FFFFFF" font-family="sans-serif"> 012</text></g><g class="node" transform="translate(167.47514945996312,-91.19529326239095)"><circle class="outline" cx="0" cy="0" r="25" fill="#C990C0" stroke="#b261a5" stroke-width="2px"/><text text-anchor="middle" pointer-events="none" font-family="sans-serif" dy="1.5625" font-size="25" fill="#FFFFFF"/><text text-anchor="middle" pointer-events="none" y="5" font-size="10px" fill="#FFFFFF" font-family="sans-serif"> 016</text></g><g class="node" transform="translate(-9.087965381554609,312.2352459769305)"><circle class="outline" cx="0" cy="0" r="25" fill="#F16667" stroke="#eb2728" stroke-width="2px"/><text text-anchor="middle" pointer-events="none" font-family="sans-serif" dy="1.5625" font-size="25" fill="#FFFFFF"/><text text-anchor="middle" pointer-events="none" y="5" font-size="10px" fill="#FFFFFF" font-family="sans-serif"> 020</text></g><g class="node" transform="translate(-46.590265829094186,-119.39654326593227)"><circle class="outline" cx="0" cy="0" r="25" fill="#569480" stroke="#447666" stroke-width="2px"/><text text-anchor="middle" pointer-events="none" font-family="sans-serif" dy="1.5625" font-size="25" fill="#FFFFFF"/><text text-anchor="middle" pointer-events="none" y="5" font-size="10px" fill="#FFFFFF" font-family="sans-serif"> 024</text></g><g class="node" transform="translate(25.71237473385166,263.3594718700621)"><circle class="outline" cx="0" cy="0" r="25" fill="#F16667" stroke="#eb2728" stroke-width="2px"/><text text-anchor="middle" pointer-events="none" font-family="sans-serif" dy="1.5625" font-size="25" fill="#FFFFFF"/><text text-anchor="middle" pointer-events="none" y="5" font-size="10px" fill="#FFFFFF" font-family="sans-serif"> 028</text></g><g class="node" transform="translate(-8.410732940837747,202.15634029414255)"><circle class="outline" cx="0" cy="0" r="25" fill="#ECB5C9" stroke="#da7298" stroke-width="2px"/><text text-anchor="middle" pointer-events="none" font-family="sans-serif" dy="1.5625" font-size="25" fill="#604A0E"/><text text-anchor="middle" pointer-events="none" y="5" font-size="10px" fill="#604A0E" font-family="sans-serif"> 032</text></g><g class="node" transform="translate(265.00270208106866,79.99888528574911)"><circle class="outline" cx="0" cy="0" r="25" fill="#F79767" stroke="#f36924" stroke-width="2px"/><text text-anchor="middle" pointer-events="none" font-family="sans-serif" dy="1.5625" font-size="25" fill="#FFFFFF"/><text text-anchor="middle" pointer-events="none" y="5" font-size="10px" fill="#FFFFFF" font-family="sans-serif"> 003</text></g><g class="node" transform="translate(296.4042816354413,156.362138022588)"><circle class="outline" cx="0" cy="0" r="25" fill="#FFE081" stroke="#9AA1AC" stroke-width="2px"/><text text-anchor="middle" pointer-events="none" font-family="sans-serif" dy="1.5625" font-size="25" fill="#FFFFFF"/><text text-anchor="middle" pointer-events="none" y="5" font-size="10px" fill="#FFFFFF" font-family="sans-serif"> 007</text></g><g class="node" transform="translate(367.59674638802073,-75.87646986974417)"><circle class="outline" cx="0" cy="0" r="25" fill="#FFE081" stroke="#9AA1AC" stroke-width="2px"/><text text-anchor="middle" pointer-events="none" font-family="sans-serif" dy="1.5625" font-size="25" fill="#FFFFFF"/><text text-anchor="middle" pointer-events="none" y="5" font-size="10px" fill="#FFFFFF" font-family="sans-serif"> 011</text></g><g class="node" transform="translate(-88.51973292163771,148.1849155826231)"><circle class="outline" cx="0" cy="0" r="25" fill="#F16667" stroke="#eb2728" stroke-width="2px"/><text text-anchor="middle" pointer-events="none" font-family="sans-serif" dy="1.5625" font-size="25" fill="#FFFFFF"/><text text-anchor="middle" pointer-events="none" y="5" font-size="10px" fill="#FFFFFF" font-family="sans-serif"> 015</text></g><g class="node" transform="translate(154.09328283504942,100.09359657746838)"><circle class="outline" cx="0" cy="0" r="25" fill="#FFE081" stroke="#9AA1AC" stroke-width="2px"/><text text-anchor="middle" pointer-events="none" font-family="sans-serif" dy="1.5625" font-size="25" fill="#FFFFFF"/><text text-anchor="middle" pointer-events="none" y="5" font-size="10px" fill="#FFFFFF" font-family="sans-serif"> 019</text></g><g class="node" transform="translate(-67.33757602817003,80.94771152068144)"><circle class="outline" cx="0" cy="0" r="25" fill="#569480" stroke="#447666" stroke-width="2px"/><text text-anchor="middle" pointer-events="none" font-family="sans-serif" dy="1.5625" font-size="25" fill="#FFFFFF"/><text text-anchor="middle" pointer-events="none" y="5" font-size="10px" fill="#FFFFFF" font-family="sans-serif"> 023</text></g><g class="node" transform="translate(31.93779680731984,24.36310836169092)"><circle class="outline" cx="0" cy="0" r="25" fill="#569480" stroke="#447666" stroke-width="2px"/><text text-anchor="middle" pointer-events="none" font-family="sans-serif" dy="1.5625" font-size="25" fill="#FFFFFF"/><text text-anchor="middle" pointer-events="none" y="5" font-size="10px" fill="#FFFFFF" font-family="sans-serif"> 027</text></g><g class="node" transform="translate(-31.537372285373763,5.958240178377551)"><circle class="outline" cx="0" cy="0" r="25" fill="#569480" stroke="#447666" stroke-width="2px"/><text text-anchor="middle" pointer-events="none" font-family="sans-serif" dy="1.5625" font-size="25" fill="#FFFFFF"/><text text-anchor="middle" pointer-events="none" y="5" font-size="10px" fill="#FFFFFF" font-family="sans-serif"> 031</text></g></g></svg>