<svg xmlns="http://www.w3.org/2000/svg" width="551.4716796875" height="636.0175170898438" viewBox="-98.17665100097656 -216.1147918701172 551.4716796875 636.0175170898438"><title>Neo4j Graph Visualization</title><desc>Created using Neo4j (http://www.neo4j.com/)</desc><g class="layer relationships"><g class="relationship" transform="translate(193.54265192540703 172.13164493332243) rotate(290.09176800315606)"><path class="outline" fill="#A5ABB6" stroke="none" d="M 25 0.5 L 101.62780674468085 0.5 L 101.62780674468085 -0.5 L 25 -0.5 Z M 134.74499424468087 0.5 L 211.3728009893617 0.5 L 211.3728009893617 3.5 L 218.3728009893617 0 L 211.3728009893617 -3.5 L 211.3728009893617 -0.5 L 134.74499424468087 -0.5 Z"/><text text-anchor="middle" pointer-events="none" font-size="8px" fill="#000000" x="118.18640049468085" y="3" font-family="sans-serif">normal</text></g><g class="relationship" transform="translate(126.74829627344366 -76.1266485232528) rotate(367.4610085766341)"><path class="outline" fill="#A5ABB6" stroke="none" d="M 25 0.5 L 55.78299228905861 0.5 L 55.78299228905861 -0.5 L 25 -0.5 Z M 88.90017978905861 0.5 L 119.68317207811722 0.5 L 119.68317207811722 3.5 L 126.68317207811722 0 L 119.68317207811722 -3.5 L 119.68317207811722 -0.5 L 88.90017978905861 -0.5 Z"/><text text-anchor="middle" pointer-events="none" font-size="8px" fill="#000000" x="72.34158603905861" y="3" font-family="sans-serif">normal</text></g><g class="relationship" transform="translate(126.74829627344366 -76.1266485232528) rotate(371.7224592064356)"><path class="outline" fill="#A5ABB6" stroke="none" d="M 25 0.5 L 28.62351025226232 0.5 L 28.62351025226232 -0.5 L 25 -0.5 Z M 54.20163525226232 0.5 L 57.82514550452464 0.5 L 57.82514550452464 3.5 L 64.82514550452464 0 L 57.82514550452464 -3.5 L 57.82514550452464 -0.5 L 54.20163525226232 -0.5 Z"/><text text-anchor="middle" pointer-events="none" font-size="8px" fill="#000000" x="41.41257275226232" y="3" font-family="sans-serif">nor…</text></g><g class="relationship" transform="translate(126.74829627344366 -76.1266485232528) rotate(236.17891319785895)"><path class="outline" fill="#A5ABB6" stroke="none" d="M 25 0.5 L 37.32505148157162 0.5 L 37.32505148157162 -0.5 L 25 -0.5 Z M 70.44223898157162 0.5 L 82.76729046314324 0.5 L 82.76729046314324 3.5 L 89.76729046314324 0 L 82.76729046314324 -3.5 L 82.76729046314324 -0.5 L 70.44223898157162 -0.5 Z"/><text text-anchor="middle" pointer-events="none" font-size="8px" fill="#000000" x="53.88364523157162" y="3" transform="rotate(180 53.88364523157162 0)" font-family="sans-serif">normal</text></g><g class="relationship" transform="translate(126.74829627344366 -76.1266485232528) rotate(456.12668133592103)"><path class="outline" fill="#A5ABB6" stroke="none" d="M 25 0.5 L 26.171310208228178 0.5 L 26.171310208228178 -0.5 L 25 -0.5 Z M 48.69474770822818 0.5 L 49.866057916456356 0.5 L 49.866057916456356 3.5 L 56.866057916456356 0 L 49.866057916456356 -3.5 L 49.866057916456356 -0.5 L 48.69474770822818 -0.5 Z"/><text text-anchor="middle" pointer-events="none" font-size="8px" fill="#000000" x="37.43302895822818" y="3" transform="rotate(180 37.43302895822818 0)" font-family="sans-serif">no…</text></g><g class="relationship" transform="translate(126.74829627344366 -76.1266485232528) rotate(518.9130288959719)"><path class="outline" fill="#A5ABB6" stroke="none" d="M 25 0.5 L 44.08174743174352 0.5 L 44.08174743174352 -0.5 L 25 -0.5 Z M 77.19893493174352 0.5 L 96.28068236348705 0.5 L 96.28068236348705 3.5 L 103.28068236348705 0 L 96.28068236348705 -3.5 L 96.28068236348705 -0.5 L 77.19893493174352 -0.5 Z"/><text text-anchor="middle" pointer-events="none" font-size="8px" fill="#000000" x="60.64034118174352" y="3" transform="rotate(180 60.64034118174352 0)" font-family="sans-serif">normal</text></g><g class="relationship" transform="translate(7.057881962732119 -29.973228392431732) rotate(386.41642288772664)"><path class="outline" fill="#A5ABB6" stroke="none" d="M 25 0.5 L 67.93595630995945 0.5 L 67.93595630995945 -0.5 L 25 -0.5 Z M 101.05314380995945 0.5 L 143.9891001199189 0.5 L 143.9891001199189 3.5 L 150.9891001199189 0 L 143.9891001199189 -3.5 L 143.9891001199189 -0.5 L 101.05314380995945 -0.5 Z"/><text text-anchor="middle" pointer-events="none" font-size="8px" fill="#000000" x="84.49455005995945" y="3" font-family="sans-serif">normal</text></g><g class="relationship" transform="translate(118.01096930164054 5.271819252058485) rotate(338.8071054474874)"><path class="outline" fill="#A5ABB6" stroke="none" d="M 25 0.5 L 65.28118512455822 0.5 L 65.28118512455822 -0.5 L 25 -0.5 Z M 98.39837262455822 0.5 L 138.67955774911644 0.5 L 138.67955774911644 3.5 L 145.67955774911644 0 L 138.67955774911644 -3.5 L 138.67955774911644 -0.5 L 98.39837262455822 -0.5 Z"/><text text-anchor="middle" pointer-events="none" font-size="8px" fill="#000000" x="81.83977887455822" y="3" font-family="sans-serif">normal</text></g><g class="relationship" transform="translate(62.868660756352654 -171.47298105080782) rotate(388.2306134311973)"><path class="outline" fill="#A5ABB6" stroke="none" d="M 25 0.5 L 101.54538528366687 0.5 L 101.54538528366687 -0.5 L 25 -0.5 Z M 134.66257278366686 0.5 L 211.20795806733375 0.5 L 211.20795806733375 3.5 L 218.20795806733375 0 L 211.20795806733375 -3.5 L 211.20795806733375 -0.5 L 134.66257278366686 -0.5 Z"/><text text-anchor="middle" pointer-events="none" font-size="8px" fill="#000000" x="118.10397903366687" y="3" font-family="sans-serif">normal</text></g><g class="relationship" transform="translate(62.868660756352654 -171.47298105080782) rotate(396.80287164125934)"><path class="outline" fill="#A5ABB6" stroke="none" d="M 25 0.5 L 74.7528615757082 0.5 L 74.7528615757082 -0.5 L 25 -0.5 Z M 107.8700490757082 0.5 L 157.6229106514164 0.5 L 157.6229106514164 3.5 L 164.6229106514164 0 L 157.6229106514164 -3.5 L 157.6229106514164 -0.5 L 107.8700490757082 -0.5 Z"/><text text-anchor="middle" pointer-events="none" font-size="8px" fill="#000000" x="91.3114553257082" y="3" font-family="sans-serif">normal</text></g><g class="relationship" transform="translate(164.67095279942686 48.32289707010881) rotate(317.036141444063)"><path class="outline" fill="#A5ABB6" stroke="none" d="M 25 0.5 L 56.79217220512797 0.5 L 56.79217220512797 -0.5 L 25 -0.5 Z M 89.90935970512797 0.5 L 121.70153191025594 0.5 L 121.70153191025594 3.5 L 128.70153191025594 0 L 121.70153191025594 -3.5 L 121.70153191025594 -0.5 L 89.90935970512797 -0.5 Z"/><text text-anchor="middle" pointer-events="none" font-size="8px" fill="#000000" x="73.35076595512797" y="3" font-family="sans-serif">normal</text></g><g class="relationship" transform="translate(164.67095279942686 48.32289707010881) rotate(295.22440212985254)"><path class="outline" fill="#A5ABB6" stroke="none" d="M 25 0.5 L 38.6382407838422 0.5 L 38.6382407838422 -0.5 L 25 -0.5 Z M 71.7554282838422 0.5 L 85.3936690676844 0.5 L 85.3936690676844 3.5 L 92.3936690676844 0 L 85.3936690676844 -3.5 L 85.3936690676844 -0.5 L 71.7554282838422 -0.5 Z"/><text text-anchor="middle" pointer-events="none" font-size="8px" fill="#000000" x="55.1968345338422" y="3" font-family="sans-serif">normal</text></g><g class="relationship" transform="translate(186.8935688449641 -167.4453653583589) rotate(410.8893631508837)"><path class="outline" fill="#A5ABB6" stroke="none" d="M 25 0.5 L 51.47820480570125 0.5 L 51.47820480570125 -0.5 L 25 -0.5 Z M 84.59539230570125 0.5 L 111.0735971114025 0.5 L 111.0735971114025 3.5 L 118.0735971114025 0 L 111.0735971114025 -3.5 L 111.0735971114025 -0.5 L 84.59539230570125 -0.5 Z"/><text text-anchor="middle" pointer-events="none" font-size="8px" fill="#000000" x="68.03679855570125" y="3" font-family="sans-serif">normal</text></g><g class="relationship" transform="translate(186.8935688449641 -167.4453653583589) rotate(435.7600539286936)"><path class="outline" fill="#A5ABB6" stroke="none" d="M 25 0.5 L 36.46236032969283 0.5 L 36.46236032969283 -0.5 L 25 -0.5 Z M 69.57954782969283 0.5 L 81.04190815938566 0.5 L 81.04190815938566 3.5 L 88.04190815938566 0 L 81.04190815938566 -3.5 L 81.04190815938566 -0.5 L 69.57954782969283 -0.5 Z"/><text text-anchor="middle" pointer-events="none" font-size="8px" fill="#000000" x="53.02095407969283" y="3" font-family="sans-serif">normal</text></g><g class="relationship" transform="translate(300.9741056936302 -169.8981299519882) rotate(461.8591209845806)"><path class="outline" fill="#A5ABB6" stroke="none" d="M 25 0.5 L 37.91263343635127 0.5 L 37.91263343635127 -0.5 L 25 -0.5 Z M 71.02982093635127 0.5 L 83.94245437270254 0.5 L 83.94245437270254 3.5 L 90.94245437270254 0 L 83.94245437270254 -3.5 L 83.94245437270254 -0.5 L 71.02982093635127 -0.5 Z"/><text text-anchor="middle" pointer-events="none" font-size="8px" fill="#000000" x="54.47122718635127" y="3" transform="rotate(180 54.47122718635127 0)" font-family="sans-serif">normal</text></g><g class="relationship" transform="translate(300.9741056936302 -169.8981299519882) rotate(487.60194766763294)"><path class="outline" fill="#A5ABB6" stroke="none" d="M 25 0.5 L 50.63795685937825 0.5 L 50.63795685937825 -0.5 L 25 -0.5 Z M 83.75514435937825 0.5 L 109.3931012187565 0.5 L 109.3931012187565 3.5 L 116.3931012187565 0 L 109.3931012187565 -3.5 L 109.3931012187565 -0.5 L 83.75514435937825 -0.5 Z"/><text text-anchor="middle" pointer-events="none" font-size="8px" fill="#000000" x="67.19655060937825" y="3" transform="rotate(180 67.19655060937825 0)" font-family="sans-serif">normal</text></g><g class="relationship" transform="translate(373.7252303730147 22.139629553005165) rotate(219.1297106515524)"><path class="outline" fill="#A5ABB6" stroke="none" d="M 25 0.5 L 42.19201547851631 0.5 L 42.19201547851631 -0.5 L 25 -0.5 Z M 75.30920297851631 0.5 L 92.50121845703262 0.5 L 92.50121845703262 3.5 L 99.50121845703262 0 L 92.50121845703262 -3.5 L 92.50121845703262 -0.5 L 75.30920297851631 -0.5 Z"/><text text-anchor="middle" pointer-events="none" font-size="8px" fill="#000000" x="58.75060922851631" y="3" transform="rotate(180 58.75060922851631 0)" font-family="sans-serif">normal</text></g><g class="relationship" transform="translate(373.7252303730147 22.139629553005165) rotate(206.71007338473117)"><path class="outline" fill="#A5ABB6" stroke="none" d="M 25 0.5 L 68.9521565465483 0.5 L 68.9521565465483 -0.5 L 25 -0.5 Z M 102.0693440465483 0.5 L 146.0215005930966 0.5 L 146.0215005930966 3.5 L 153.0215005930966 0 L 146.0215005930966 -3.5 L 146.0215005930966 -0.5 L 102.0693440465483 -0.5 Z"/><text text-anchor="middle" pointer-events="none" font-size="8px" fill="#000000" x="85.5107502965483" y="3" transform="rotate(180 85.5107502965483 0)" font-family="sans-serif">normal</text></g><g class="relationship" transform="translate(-1.1690219827460107 60.04679301265955) rotate(355.9562579592117)"><path class="outline" fill="#A5ABB6" stroke="none" d="M 25 0.5 L 63.0683377641361 0.5 L 63.0683377641361 -0.5 L 25 -0.5 Z M 96.1855252641361 0.5 L 134.2538630282722 0.5 L 134.2538630282722 3.5 L 141.2538630282722 0 L 134.2538630282722 -3.5 L 134.2538630282722 -0.5 L 96.1855252641361 -0.5 Z"/><text text-anchor="middle" pointer-events="none" font-size="8px" fill="#000000" x="79.6269315141361" y="3" font-family="sans-serif">normal</text></g><g class="relationship" transform="translate(-1.1690219827460107 60.04679301265955) rotate(335.31654801489697)"><path class="outline" fill="#A5ABB6" stroke="none" d="M 25 0.5 L 45.523736326440925 0.5 L 45.523736326440925 -0.5 L 25 -0.5 Z M 78.64092382644093 0.5 L 99.16466015288185 0.5 L 99.16466015288185 3.5 L 106.16466015288185 0 L 99.16466015288185 -3.5 L 99.16466015288185 -0.5 L 78.64092382644093 -0.5 Z"/><text text-anchor="middle" pointer-events="none" font-size="8px" fill="#000000" x="62.082330076440925" y="3" font-family="sans-serif">normal</text></g><g class="relationship" transform="translate(-1.1690219827460107 60.04679301265955) rotate(275.2217396371258)"><path class="outline" fill="#A5ABB6" stroke="none" d="M 25 0.5 L 25.138989709465 0.5 L 25.138989709465 -0.5 L 25 -0.5 Z M 58.256177209465 0.5 L 58.39516691893 0.5 L 58.39516691893 3.5 L 65.39516691893 0 L 58.39516691893 -3.5 L 58.39516691893 -0.5 L 58.256177209465 -0.5 Z"/><text text-anchor="middle" pointer-events="none" font-size="8px" fill="#000000" x="41.697583459465" y="3" font-family="sans-serif">normal</text></g><g class="relationship" transform="translate(116.62511341052317 -164.43057902992058) rotate(393.932893735482)"><path class="outline" fill="#A5ABB6" stroke="none" d="M 25 0.5 L 76.67738405717806 0.5 L 76.67738405717806 -0.5 L 25 -0.5 Z M 109.79457155717806 0.5 L 161.47195561435612 0.5 L 161.47195561435612 3.5 L 168.47195561435612 0 L 161.47195561435612 -3.5 L 161.47195561435612 -0.5 L 109.79457155717806 -0.5 Z"/><text text-anchor="middle" pointer-events="none" font-size="8px" fill="#000000" x="93.23597780717806" y="3" font-family="sans-serif">normal</text></g><g class="relationship" transform="translate(116.62511341052317 -164.43057902992058) rotate(187.4635698834898)"><path class="outline" fill="#A5ABB6" stroke="none" d="M 25 0.5 L 23.607893814274252 0.5 L 23.607893814274252 -0.5 L 25 -0.5 Z M 23.607893814274252 0.5 L 22.215787628548505 0.5 L 22.215787628548505 3.5 L 29.215787628548505 0 L 22.215787628548505 -3.5 L 22.215787628548505 -0.5 L 23.607893814274252 -0.5 Z"/><text text-anchor="middle" pointer-events="none" font-size="8px" fill="#000000" x="23.607893814274252" y="3" transform="rotate(180 23.607893814274252 0)" font-family="sans-serif"/></g><g class="relationship" transform="translate(405.7594876976783 -17.228483822552846) rotate(196.95157599562907)"><path class="outline" fill="#A5ABB6" stroke="none" d="M 25 0.5 L 47.16844484371191 0.5 L 47.16844484371191 -0.5 L 25 -0.5 Z M 80.28563234371191 0.5 L 102.45407718742382 0.5 L 102.45407718742382 3.5 L 109.45407718742382 0 L 102.45407718742382 -3.5 L 102.45407718742382 -0.5 L 80.28563234371191 -0.5 Z"/><text text-anchor="middle" pointer-events="none" font-size="8px" fill="#000000" x="63.72703859371191" y="3" transform="rotate(180 63.72703859371191 0)" font-family="sans-serif">normal</text></g><g class="relationship" transform="translate(405.7594876976783 -17.228483822552846) rotate(524.7891392552618)"><path class="outline" fill="#A5ABB6" stroke="none" d="M 25 0.5 L 104.86204625428454 0.5 L 104.86204625428454 -0.5 L 25 -0.5 Z M 137.97923375428454 0.5 L 217.84128000856907 0.5 L 217.84128000856907 3.5 L 224.84128000856907 0 L 217.84128000856907 -3.5 L 217.84128000856907 -0.5 L 137.97923375428454 -0.5 Z"/><text text-anchor="middle" pointer-events="none" font-size="8px" fill="#000000" x="121.42064000428454" y="3" transform="rotate(180 121.42064000428454 0)" font-family="sans-serif">normal</text></g><g class="relationship" transform="translate(330.6927117162358 14.746315211749966) rotate(233.04623821756383)"><path class="outline" fill="#A5ABB6" stroke="none" d="M 25 0.5 L 28.24530100727616 0.5 L 28.24530100727616 -0.5 L 25 -0.5 Z M 53.82342600727616 0.5 L 57.06872701455232 0.5 L 57.06872701455232 3.5 L 64.06872701455232 0 L 57.06872701455232 -3.5 L 57.06872701455232 -0.5 L 53.82342600727616 -0.5 Z"/><text text-anchor="middle" pointer-events="none" font-size="8px" fill="#000000" x="41.03436350727616" y="3" transform="rotate(180 41.03436350727616 0)" font-family="sans-serif">nor…</text></g><g class="relationship" transform="translate(330.6927117162358 14.746315211749966) rotate(212.0506963351222)"><path class="outline" fill="#A5ABB6" stroke="none" d="M 25 0.5 L 48.36732706814523 0.5 L 48.36732706814523 -0.5 L 25 -0.5 Z M 81.48451456814523 0.5 L 104.85184163629046 0.5 L 104.85184163629046 3.5 L 111.85184163629046 0 L 104.85184163629046 -3.5 L 104.85184163629046 -0.5 L 81.48451456814523 -0.5 Z"/><text text-anchor="middle" pointer-events="none" font-size="8px" fill="#000000" x="64.92592081814523" y="3" transform="rotate(180 64.92592081814523 0)" font-family="sans-serif">normal</text></g><g class="relationship" transform="translate(214.69998076031425 -57.87677288447132) rotate(361.32684913536264)"><path class="outline" fill="#A5ABB6" stroke="none" d="M 25 0.5 L 27.73200216323712 0.5 L 27.73200216323712 -0.5 L 25 -0.5 Z M 27.73200216323712 0.5 L 30.46400432647424 0.5 L 30.46400432647424 3.5 L 37.46400432647424 0 L 30.46400432647424 -3.5 L 30.46400432647424 -0.5 L 27.73200216323712 -0.5 Z"/><text text-anchor="middle" pointer-events="none" font-size="8px" fill="#000000" x="27.73200216323712" y="3" font-family="sans-serif"/></g><g class="relationship" transform="translate(225.86801231083865 75.807363103568) rotate(265.22457400646766)"><path class="outline" fill="#A5ABB6" stroke="none" d="M 25 0.5 L 47.01631427003029 0.5 L 47.01631427003029 -0.5 L 25 -0.5 Z M 80.13350177003029 0.5 L 102.14981604006059 0.5 L 102.14981604006059 3.5 L 109.14981604006059 0 L 102.14981604006059 -3.5 L 102.14981604006059 -0.5 L 80.13350177003029 -0.5 Z"/><text text-anchor="middle" pointer-events="none" font-size="8px" fill="#000000" x="63.57490802003029" y="3" transform="rotate(180 63.57490802003029 0)" font-family="sans-serif">normal</text></g><g class="relationship" transform="translate(225.86801231083865 75.807363103568) rotate(332.65300590912545)"><path class="outline" fill="#A5ABB6" stroke="none" d="M 25 0.5 L 81.20419770139458 0.5 L 81.20419770139458 -0.5 L 25 -0.5 Z M 114.32138520139458 0.5 L 170.52558290278915 0.5 L 170.52558290278915 3.5 L 177.52558290278915 0 L 170.52558290278915 -3.5 L 170.52558290278915 -0.5 L 114.32138520139458 -0.5 Z"/><text text-anchor="middle" pointer-events="none" font-size="8px" fill="#000000" x="97.76279145139458" y="3" font-family="sans-serif">normal</text></g><g class="relationship" transform="translate(225.86801231083865 75.807363103568) rotate(213.18358389873475)"><path class="outline" fill="#A5ABB6" stroke="none" d="M 25 0.5 L 44.378206048555 0.5 L 44.378206048555 -0.5 L 25 -0.5 Z M 77.495393548555 0.5 L 96.87359959711 0.5 L 96.87359959711 3.5 L 103.87359959711 0 L 96.87359959711 -3.5 L 96.87359959711 -0.5 L 77.495393548555 -0.5 Z"/><text text-anchor="middle" pointer-events="none" font-size="8px" fill="#000000" x="60.936799798555" y="3" transform="rotate(180 60.936799798555 0)" font-family="sans-serif">normal</text></g><g class="relationship" transform="translate(225.86801231083865 75.807363103568) rotate(438.333851000652)"><path class="outline" fill="#A5ABB6" stroke="none" d="M 25 0.5 L 41.07691092218639 0.5 L 41.07691092218639 -0.5 L 25 -0.5 Z M 74.19409842218639 0.5 L 90.27100934437279 0.5 L 90.27100934437279 3.5 L 97.27100934437279 0 L 90.27100934437279 -3.5 L 90.27100934437279 -0.5 L 74.19409842218639 -0.5 Z"/><text text-anchor="middle" pointer-events="none" font-size="8px" fill="#000000" x="57.63550467218639" y="3" font-family="sans-serif">normal</text></g><g class="relationship" transform="translate(225.86801231083865 75.807363103568) rotate(348.76618536269325)"><path class="outline" fill="#A5ABB6" stroke="none" d="M 25 0.5 L 81.09293312950693 0.5 L 81.09293312950693 -0.5 L 25 -0.5 Z M 114.21012062950693 0.5 L 170.30305375901386 0.5 L 170.30305375901386 3.5 L 177.30305375901386 0 L 170.30305375901386 -3.5 L 170.30305375901386 -0.5 L 114.21012062950693 -0.5 Z"/><text text-anchor="middle" pointer-events="none" font-size="8px" fill="#000000" x="97.65152687950693" y="3" font-family="sans-serif">normal</text></g><g class="relationship" transform="translate(225.86801231083865 75.807363103568) rotate(357.8916306521061)"><path class="outline" fill="#A5ABB6" stroke="none" d="M 25 0.5 L 33.73657970707182 0.5 L 33.73657970707182 -0.5 L 25 -0.5 Z M 66.85376720707183 0.5 L 75.59034691414364 0.5 L 75.59034691414364 3.5 L 82.59034691414364 0 L 75.59034691414364 -3.5 L 75.59034691414364 -0.5 L 66.85376720707183 -0.5 Z"/><text text-anchor="middle" pointer-events="none" font-size="8px" fill="#000000" x="50.29517345707182" y="3" font-family="sans-serif">normal</text></g><g class="relationship" transform="translate(225.86801231083865 75.807363103568) rotate(406.3792986346938)"><path class="outline" fill="#A5ABB6" stroke="none" d="M 25 0.5 L 26.429972464114602 0.5 L 26.429972464114602 -0.5 L 25 -0.5 Z M 26.429972464114602 0.5 L 27.859944928229204 0.5 L 27.859944928229204 3.5 L 34.859944928229204 0 L 27.859944928229204 -3.5 L 27.859944928229204 -0.5 L 26.429972464114602 -0.5 Z"/><text text-anchor="middle" pointer-events="none" font-size="8px" fill="#000000" x="26.429972464114602" y="3" font-family="sans-serif"/></g><g class="relationship" transform="translate(225.86801231083865 75.807363103568) rotate(382.8947051835746)"><path class="outline" fill="#A5ABB6" stroke="none" d="M 25 0.5 L 40.148471921849634 0.5 L 40.148471921849634 -0.5 L 25 -0.5 Z M 73.26565942184963 0.5 L 88.41413134369927 0.5 L 88.41413134369927 3.5 L 95.41413134369927 0 L 88.41413134369927 -3.5 L 88.41413134369927 -0.5 L 73.26565942184963 -0.5 Z"/><text text-anchor="middle" pointer-events="none" font-size="8px" fill="#000000" x="56.707065671849634" y="3" font-family="sans-serif">normal</text></g><g class="relationship" transform="translate(139.56006845543448 327.36717292289603) rotate(222.1364175495139)"><path class="outline" fill="#A5ABB6" stroke="none" d="M 25 0.5 L 27.109431158297703 0.5 L 27.109431158297703 -0.5 L 25 -0.5 Z M 52.6875561582977 0.5 L 54.796987316595406 0.5 L 54.796987316595406 3.5 L 61.796987316595406 0 L 54.796987316595406 -3.5 L 54.796987316595406 -0.5 L 52.6875561582977 -0.5 Z"/><text text-anchor="middle" pointer-events="none" font-size="8px" fill="#000000" x="39.8984936582977" y="3" transform="rotate(180 39.8984936582977 0)" font-family="sans-serif">nor…</text></g><g class="relationship" transform="translate(139.56006845543448 327.36717292289603) rotate(511.0302727970998)"><path class="outline" fill="#A5ABB6" stroke="none" d="M 25 0.5 L 26.0793450729228 0.5 L 26.0793450729228 -0.5 L 25 -0.5 Z M 51.6574700729228 0.5 L 52.7368151458456 0.5 L 52.7368151458456 3.5 L 59.7368151458456 0 L 52.7368151458456 -3.5 L 52.7368151458456 -0.5 L 51.6574700729228 -0.5 Z"/><text text-anchor="middle" pointer-events="none" font-size="8px" fill="#000000" x="38.8684075729228" y="3" transform="rotate(180 38.8684075729228 0)" font-family="sans-serif">nor…</text></g><g class="relationship" transform="translate(65.42588468005493 368.4092322891055) rotate(530.5129445794871)"><path class="outline" fill="#A5ABB6" stroke="none" d="M 25 0.5 L 48.17592781432455 0.5 L 48.17592781432455 -0.5 L 25 -0.5 Z M 81.29311531432455 0.5 L 104.4690431286491 0.5 L 104.4690431286491 3.5 L 111.4690431286491 0 L 104.4690431286491 -3.5 L 104.4690431286491 -0.5 L 81.29311531432455 -0.5 Z"/><text text-anchor="middle" pointer-events="none" font-size="8px" fill="#000000" x="64.73452156432455" y="3" transform="rotate(180 64.73452156432455 0)" font-family="sans-serif">normal</text></g><g class="relationship" transform="translate(333.38552383867915 71.84914835870333) rotate(246.3271496932838)"><path class="outline" fill="#A5ABB6" stroke="none" d="M 25 0.5 L 49.974218646830366 0.5 L 49.974218646830366 -0.5 L 25 -0.5 Z M 83.09140614683037 0.5 L 108.06562479366073 0.5 L 108.06562479366073 3.5 L 115.06562479366073 0 L 108.06562479366073 -3.5 L 108.06562479366073 -0.5 L 83.09140614683037 -0.5 Z"/><text text-anchor="middle" pointer-events="none" font-size="8px" fill="#000000" x="66.53281239683037" y="3" transform="rotate(180 66.53281239683037 0)" font-family="sans-serif">normal</text></g><g class="relationship" transform="translate(333.38552383867915 71.84914835870333) rotate(227.54477414139376)"><path class="outline" fill="#A5ABB6" stroke="none" d="M 25 0.5 L 67.85481930255524 0.5 L 67.85481930255524 -0.5 L 25 -0.5 Z M 100.97200680255524 0.5 L 143.82682610511048 0.5 L 143.82682610511048 3.5 L 150.82682610511048 0 L 143.82682610511048 -3.5 L 143.82682610511048 -0.5 L 100.97200680255524 -0.5 Z"/><text text-anchor="middle" pointer-events="none" font-size="8px" fill="#000000" x="84.41341305255524" y="3" transform="rotate(180 84.41341305255524 0)" font-family="sans-serif">normal</text></g><g class="relationship" transform="translate(333.38552383867915 71.84914835870333) rotate(267.3000892324002)"><path class="outline" fill="#A5ABB6" stroke="none" d="M 25 0.5 L 25.083145341860007 0.5 L 25.083145341860007 -0.5 L 25 -0.5 Z M 25.083145341860007 0.5 L 25.166290683720014 0.5 L 25.166290683720014 3.5 L 32.166290683720014 0 L 25.166290683720014 -3.5 L 25.166290683720014 -0.5 L 25.083145341860007 -0.5 Z"/><text text-anchor="middle" pointer-events="none" font-size="8px" fill="#000000" x="25.083145341860007" y="3" transform="rotate(180 25.083145341860007 0)" font-family="sans-serif"/></g><g class="relationship" transform="translate(243.52330967803894 -187.1147865637222) rotate(435.57126478876205)"><path class="outline" fill="#A5ABB6" stroke="none" d="M 25 0.5 L 47.41174369943323 0.5 L 47.41174369943323 -0.5 L 25 -0.5 Z M 80.52893119943323 0.5 L 102.94067489886646 0.5 L 102.94067489886646 3.5 L 109.94067489886646 0 L 102.94067489886646 -3.5 L 102.94067489886646 -0.5 L 80.52893119943323 -0.5 Z"/><text text-anchor="middle" pointer-events="none" font-size="8px" fill="#000000" x="63.97033744943323" y="3" font-family="sans-serif">normal</text></g><g class="relationship" transform="translate(243.52330967803894 -187.1147865637222) rotate(462.57264035569347)"><path class="outline" fill="#A5ABB6" stroke="none" d="M 25 0.5 L 46.147992911860115 0.5 L 46.147992911860115 -0.5 L 25 -0.5 Z M 79.26518041186011 0.5 L 100.41317332372023 0.5 L 100.41317332372023 3.5 L 107.41317332372023 0 L 100.41317332372023 -3.5 L 100.41317332372023 -0.5 L 79.26518041186011 -0.5 Z"/><text text-anchor="middle" pointer-events="none" font-size="8px" fill="#000000" x="62.706586661860115" y="3" transform="rotate(180 62.706586661860115 0)" font-family="sans-serif">normal</text></g><g class="relationship" transform="translate(310.2529733292614 183.30582188519114) rotate(276.91400185589134)"><path class="outline" fill="#A5ABB6" stroke="none" d="M 25 0.5 L 64.83853546430531 0.5 L 64.83853546430531 -0.5 L 25 -0.5 Z M 97.95572296430531 0.5 L 137.79425842861062 0.5 L 137.79425842861062 3.5 L 144.79425842861062 0 L 137.79425842861062 -3.5 L 137.79425842861062 -0.5 L 97.95572296430531 -0.5 Z"/><text text-anchor="middle" pointer-events="none" font-size="8px" fill="#000000" x="81.39712921430531" y="3" font-family="sans-serif">normal</text></g><g class="relationship" transform="translate(310.2529733292614 183.30582188519114) rotate(425.3269892457394)"><path class="outline" fill="#A5ABB6" stroke="none" d="M 25 0.5 L 36.63143134048505 0.5 L 36.63143134048505 -0.5 L 25 -0.5 Z M 69.74861884048505 0.5 L 81.3800501809701 0.5 L 81.3800501809701 3.5 L 88.3800501809701 0 L 81.3800501809701 -3.5 L 81.3800501809701 -0.5 L 69.74861884048505 -0.5 Z"/><text text-anchor="middle" pointer-events="none" font-size="8px" fill="#000000" x="53.19002509048505" y="3" font-family="sans-serif">normal</text></g><g class="relationship" transform="translate(310.2529733292614 183.30582188519114) rotate(185.4689901260245)"><path class="outline" fill="#A5ABB6" stroke="none" d="M 25 0.5 L 38.56341865306977 0.5 L 38.56341865306977 -0.5 L 25 -0.5 Z M 71.68060615306976 0.5 L 85.24402480613954 0.5 L 85.24402480613954 3.5 L 92.24402480613954 0 L 85.24402480613954 -3.5 L 85.24402480613954 -0.5 L 71.68060615306976 -0.5 Z"/><text text-anchor="middle" pointer-events="none" font-size="8px" fill="#000000" x="55.12201240306977" y="3" transform="rotate(180 55.12201240306977 0)" font-family="sans-serif">normal</text></g><g class="relationship" transform="translate(310.2529733292614 183.30582188519114) rotate(398.6310196672363)"><path class="outline" fill="#A5ABB6" stroke="none" d="M 25 0.5 L 46.76904010684453 0.5 L 46.76904010684453 -0.5 L 25 -0.5 Z M 79.88622760684453 0.5 L 101.65526771368906 0.5 L 101.65526771368906 3.5 L 108.65526771368906 0 L 101.65526771368906 -3.5 L 101.65526771368906 -0.5 L 79.88622760684453 -0.5 Z"/><text text-anchor="middle" pointer-events="none" font-size="8px" fill="#000000" x="63.32763385684453" y="3" font-family="sans-serif">normal</text></g><g class="relationship" transform="translate(310.2529733292614 183.30582188519114) rotate(528.3998629089535)"><path class="outline" fill="#A5ABB6" stroke="none" d="M 25 0.5 L 26.952344302163624 0.5 L 26.952344302163624 -0.5 L 25 -0.5 Z M 26.952344302163624 0.5 L 28.904688604327248 0.5 L 28.904688604327248 3.5 L 35.90468860432725 0 L 28.904688604327248 -3.5 L 28.904688604327248 -0.5 L 26.952344302163624 -0.5 Z"/><text text-anchor="middle" pointer-events="none" font-size="8px" fill="#000000" x="26.952344302163624" y="3" transform="rotate(180 26.952344302163624 0)" font-family="sans-serif"/></g><g class="relationship" transform="translate(310.2529733292614 183.30582188519114) rotate(236.11724898125777)"><path class="outline" fill="#A5ABB6" stroke="none" d="M 25 0.5 L 26.426168366403957 0.5 L 26.426168366403957 -0.5 L 25 -0.5 Z M 43.86366836640396 0.5 L 45.28983673280791 0.5 L 45.28983673280791 3.5 L 52.28983673280791 0 L 45.28983673280791 -3.5 L 45.28983673280791 -0.5 L 43.86366836640396 -0.5 Z"/><text text-anchor="middle" pointer-events="none" font-size="8px" fill="#000000" x="35.14491836640396" y="3" transform="rotate(180 35.14491836640396 0)" font-family="sans-serif">n…</text></g><g class="relationship" transform="translate(310.2529733292614 183.30582188519114) rotate(293.635370372255)"><path class="outline" fill="#A5ABB6" stroke="none" d="M 25 0.5 L 29.603191318496755 0.5 L 29.603191318496755 -0.5 L 25 -0.5 Z M 29.603191318496755 0.5 L 34.20638263699351 0.5 L 34.20638263699351 3.5 L 41.20638263699351 0 L 34.20638263699351 -3.5 L 34.20638263699351 -0.5 L 29.603191318496755 -0.5 Z"/><text text-anchor="middle" pointer-events="none" font-size="8px" fill="#000000" x="29.603191318496755" y="3" font-family="sans-serif"/></g><g class="relationship" transform="translate(310.2529733292614 183.30582188519114) rotate(231.86852464013054)"><path class="outline" fill="#A5ABB6" stroke="none" d="M 25 0.5 L 48.27284170708859 0.5 L 48.27284170708859 -0.5 L 25 -0.5 Z M 81.39002920708859 0.5 L 104.66287091417718 0.5 L 104.66287091417718 3.5 L 111.66287091417718 0 L 104.66287091417718 -3.5 L 104.66287091417718 -0.5 L 81.39002920708859 -0.5 Z"/><text text-anchor="middle" pointer-events="none" font-size="8px" fill="#000000" x="64.83143545708859" y="3" transform="rotate(180 64.83143545708859 0)" font-family="sans-serif">normal</text></g><g class="relationship" transform="translate(336.7960823126838 122.65313466219862) rotate(499.7800155947099)"><path class="outline" fill="#A5ABB6" stroke="none" d="M 25 0.5 L 36.3892166608426 0.5 L 36.3892166608426 -0.5 L 25 -0.5 Z M 69.5064041608426 0.5 L 80.8956208216852 0.5 L 80.8956208216852 3.5 L 87.8956208216852 0 L 80.8956208216852 -3.5 L 80.8956208216852 -0.5 L 69.5064041608426 -0.5 Z"/><text text-anchor="middle" pointer-events="none" font-size="8px" fill="#000000" x="52.9478104108426" y="3" transform="rotate(180 52.9478104108426 0)" font-family="sans-serif">normal</text></g><g class="relationship" transform="translate(336.7960823126838 122.65313466219862) rotate(440.77608297014547)"><path class="outline" fill="#A5ABB6" stroke="none" d="M 25 0.5 L 32.69018513107249 0.5 L 32.69018513107249 -0.5 L 25 -0.5 Z M 65.8073726310725 0.5 L 73.49755776214498 0.5 L 73.49755776214498 3.5 L 80.49755776214498 0 L 73.49755776214498 -3.5 L 73.49755776214498 -0.5 L 65.8073726310725 -0.5 Z"/><text text-anchor="middle" pointer-events="none" font-size="8px" fill="#000000" x="49.24877888107249" y="3" font-family="sans-serif">normal</text></g><g class="relationship" transform="translate(336.7960823126838 122.65313466219862) rotate(182.8872010597492)"><path class="outline" fill="#A5ABB6" stroke="none" d="M 25 0.5 L 31.36016157292947 0.5 L 31.36016157292947 -0.5 L 25 -0.5 Z M 31.36016157292947 0.5 L 37.72032314585894 0.5 L 37.72032314585894 3.5 L 44.72032314585894 0 L 37.72032314585894 -3.5 L 37.72032314585894 -0.5 L 31.36016157292947 -0.5 Z"/><text text-anchor="middle" pointer-events="none" font-size="8px" fill="#000000" x="31.36016157292947" y="3" transform="rotate(180 31.36016157292947 0)" font-family="sans-serif"/></g><g class="relationship" transform="translate(7.325209037356745 294.9104459879213) rotate(488.5533949094686)"><path class="outline" fill="#A5ABB6" stroke="none" d="M 25 0.5 L 41.31536230777319 0.5 L 41.31536230777319 -0.5 L 25 -0.5 Z M 74.4325498077732 0.5 L 90.74791211554638 0.5 L 90.74791211554638 3.5 L 97.74791211554638 0 L 90.74791211554638 -3.5 L 90.74791211554638 -0.5 L 74.4325498077732 -0.5 Z"/><text text-anchor="middle" pointer-events="none" font-size="8px" fill="#000000" x="57.87395605777319" y="3" transform="rotate(180 57.87395605777319 0)" font-family="sans-serif">normal</text></g><g class="relationship" transform="translate(7.325209037356745 294.9104459879213) rotate(339.2047314251927)"><path class="outline" fill="#A5ABB6" stroke="none" d="M 25 0.5 L 32.80006338237496 0.5 L 32.80006338237496 -0.5 L 25 -0.5 Z M 32.80006338237496 0.5 L 40.600126764749916 0.5 L 40.600126764749916 3.5 L 47.600126764749916 0 L 40.600126764749916 -3.5 L 40.600126764749916 -0.5 L 32.80006338237496 -0.5 Z"/><text text-anchor="middle" pointer-events="none" font-size="8px" fill="#000000" x="32.80006338237496" y="3" font-family="sans-serif"/></g><g class="relationship" transform="translate(7.325209037356745 294.9104459879213) rotate(411.6736846194635)"><path class="outline" fill="#A5ABB6" stroke="none" d="M 25 0.5 L 26.786256815150594 0.5 L 26.786256815150594 -0.5 L 25 -0.5 Z M 59.903444315150594 0.5 L 61.68970113030119 0.5 L 61.68970113030119 3.5 L 68.68970113030119 0 L 61.68970113030119 -3.5 L 61.68970113030119 -0.5 L 59.903444315150594 -0.5 Z"/><text text-anchor="middle" pointer-events="none" font-size="8px" fill="#000000" x="43.344850565150594" y="3" font-family="sans-serif">normal</text></g><g class="relationship" transform="translate(424.2950107541004 36.396046847697484) rotate(212.2452884393876)"><path class="outline" fill="#A5ABB6" stroke="none" d="M 25 0.5 L 66.93165101841879 0.5 L 66.93165101841879 -0.5 L 25 -0.5 Z M 100.04883851841879 0.5 L 141.98048953683758 0.5 L 141.98048953683758 3.5 L 148.98048953683758 0 L 141.98048953683758 -3.5 L 141.98048953683758 -0.5 L 100.04883851841879 -0.5 Z"/><text text-anchor="middle" pointer-events="none" font-size="8px" fill="#000000" x="83.49024476841879" y="3" transform="rotate(180 83.49024476841879 0)" font-family="sans-serif">normal</text></g><g class="relationship" transform="translate(250.59227709036873 195.5525528073861) rotate(276.01585177931383)"><path class="outline" fill="#A5ABB6" stroke="none" d="M 25 0.5 L 106.63055158794477 0.5 L 106.63055158794477 -0.5 L 25 -0.5 Z M 139.74773908794475 0.5 L 221.37829067588953 0.5 L 221.37829067588953 3.5 L 228.37829067588953 0 L 221.37829067588953 -3.5 L 221.37829067588953 -0.5 L 139.74773908794475 -0.5 Z"/><text text-anchor="middle" pointer-events="none" font-size="8px" fill="#000000" x="123.18914533794477" y="3" font-family="sans-serif">normal</text></g><g class="relationship" transform="translate(392.3121693955294 -76.05702471518276) rotate(530.3284476317915)"><path class="outline" fill="#A5ABB6" stroke="none" d="M 25 0.5 L 38.35409200433766 0.5 L 38.35409200433766 -0.5 L 25 -0.5 Z M 71.47127950433766 0.5 L 84.82537150867532 0.5 L 84.82537150867532 3.5 L 91.82537150867532 0 L 84.82537150867532 -3.5 L 84.82537150867532 -0.5 L 71.47127950433766 -0.5 Z"/><text text-anchor="middle" pointer-events="none" font-size="8px" fill="#000000" x="54.91268575433766" y="3" transform="rotate(180 54.91268575433766 0)" font-family="sans-serif">normal</text></g><g class="relationship" transform="translate(392.3121693955294 -76.05702471518276) rotate(534.1556012099348)"><path class="outline" fill="#A5ABB6" stroke="none" d="M 25 0.5 L 69.21151758131197 0.5 L 69.21151758131197 -0.5 L 25 -0.5 Z M 102.32870508131197 0.5 L 146.54022266262393 0.5 L 146.54022266262393 3.5 L 153.54022266262393 0 L 146.54022266262393 -3.5 L 146.54022266262393 -0.5 L 102.32870508131197 -0.5 Z"/><text text-anchor="middle" pointer-events="none" font-size="8px" fill="#000000" x="85.77011133131197" y="3" transform="rotate(180 85.77011133131197 0)" font-family="sans-serif">normal</text></g><g class="relationship" transform="translate(190.02179162395223 231.9572107680936) rotate(262.1399605432665)"><path class="outline" fill="#A5ABB6" stroke="none" d="M 25 0.5 L 72.62935880646354 0.5 L 72.62935880646354 -0.5 L 25 -0.5 Z M 105.74654630646354 0.5 L 153.3759051129271 0.5 L 153.3759051129271 3.5 L 160.3759051129271 0 L 153.3759051129271 -3.5 L 153.3759051129271 -0.5 L 105.74654630646354 -0.5 Z"/><text text-anchor="middle" pointer-events="none" font-size="8px" fill="#000000" x="89.18795255646354" y="3" transform="rotate(180 89.18795255646354 0)" font-family="sans-serif">normal</text></g><g class="relationship" transform="translate(190.02179162395223 231.9572107680936) rotate(377.97956324435415)"><path class="outline" fill="#A5ABB6" stroke="none" d="M 25 0.5 L 68.02294262869998 0.5 L 68.02294262869998 -0.5 L 25 -0.5 Z M 101.14013012869998 0.5 L 144.16307275739996 0.5 L 144.16307275739996 3.5 L 151.16307275739996 0 L 144.16307275739996 -3.5 L 144.16307275739996 -0.5 L 101.14013012869998 -0.5 Z"/><text text-anchor="middle" pointer-events="none" font-size="8px" fill="#000000" x="84.58153637869998" y="3" font-family="sans-serif">normal</text></g><g class="relationship" transform="translate(190.02179162395223 231.9572107680936) rotate(273.3680921030756)"><path class="outline" fill="#A5ABB6" stroke="none" d="M 25 0.5 L 26.464540646875015 0.5 L 26.464540646875015 -0.5 L 25 -0.5 Z M 26.464540646875015 0.5 L 27.92908129375003 0.5 L 27.92908129375003 3.5 L 34.92908129375003 0 L 27.92908129375003 -3.5 L 27.92908129375003 -0.5 L 26.464540646875015 -0.5 Z"/><text text-anchor="middle" pointer-events="none" font-size="8px" fill="#000000" x="26.464540646875015" y="3" font-family="sans-serif"/></g><g class="relationship" transform="translate(190.02179162395223 231.9572107680936) rotate(368.80343260474365)"><path class="outline" fill="#A5ABB6" stroke="none" d="M 25 0.5 L 93.60057568640731 0.5 L 93.60057568640731 -0.5 L 25 -0.5 Z M 126.71776318640731 0.5 L 195.31833887281462 0.5 L 195.31833887281462 3.5 L 202.31833887281462 0 L 195.31833887281462 -3.5 L 195.31833887281462 -0.5 L 126.71776318640731 -0.5 Z"/><text text-anchor="middle" pointer-events="none" font-size="8px" fill="#000000" x="110.15916943640731" y="3" font-family="sans-serif">normal</text></g><g class="relationship" transform="translate(190.02179162395223 231.9572107680936) rotate(328.99288459539133)"><path class="outline" fill="#A5ABB6" stroke="none" d="M 25 0.5 L 31.834412514125226 0.5 L 31.834412514125226 -0.5 L 25 -0.5 Z M 31.834412514125226 0.5 L 38.66882502825045 0.5 L 38.66882502825045 3.5 L 45.66882502825045 0 L 38.66882502825045 -3.5 L 38.66882502825045 -0.5 L 31.834412514125226 -0.5 Z"/><text text-anchor="middle" pointer-events="none" font-size="8px" fill="#000000" x="31.834412514125226" y="3" font-family="sans-serif"/></g><g class="relationship" transform="translate(190.02179162395223 231.9572107680936) rotate(358.190678072777)"><path class="outline" fill="#A5ABB6" stroke="none" d="M 25 0.5 L 61.824647983327466 0.5 L 61.824647983327466 -0.5 L 25 -0.5 Z M 94.94183548332747 0.5 L 131.76648346665493 0.5 L 131.76648346665493 3.5 L 138.76648346665493 0 L 131.76648346665493 -3.5 L 131.76648346665493 -0.5 L 94.94183548332747 -0.5 Z"/><text text-anchor="middle" pointer-events="none" font-size="8px" fill="#000000" x="78.38324173332747" y="3" font-family="sans-serif">normal</text></g><g class="relationship" transform="translate(190.02179162395223 231.9572107680936) rotate(365.0503955841159)"><path class="outline" fill="#A5ABB6" stroke="none" d="M 25 0.5 L 32.98831574792378 0.5 L 32.98831574792378 -0.5 L 25 -0.5 Z M 66.10550324792378 0.5 L 74.09381899584756 0.5 L 74.09381899584756 3.5 L 81.09381899584756 0 L 74.09381899584756 -3.5 L 74.09381899584756 -0.5 L 66.10550324792378 -0.5 Z"/><text text-anchor="middle" pointer-events="none" font-size="8px" fill="#000000" x="49.54690949792378" y="3" font-family="sans-serif">normal</text></g><g class="relationship" transform="translate(190.02179162395223 231.9572107680936) rotate(522.0592330723154)"><path class="outline" fill="#A5ABB6" stroke="none" d="M 25 0.5 L 40.28876355079463 0.5 L 40.28876355079463 -0.5 L 25 -0.5 Z M 73.40595105079463 0.5 L 88.69471460158925 0.5 L 88.69471460158925 3.5 L 95.69471460158925 0 L 88.69471460158925 -3.5 L 88.69471460158925 -0.5 L 73.40595105079463 -0.5 Z"/><text text-anchor="middle" pointer-events="none" font-size="8px" fill="#000000" x="56.84735730079463" y="3" transform="rotate(180 56.84735730079463 0)" font-family="sans-serif">normal</text></g><g class="relationship" transform="translate(190.02179162395223 231.9572107680936) rotate(311.8418559139394)"><path class="outline" fill="#A5ABB6" stroke="none" d="M 25 0.5 L 87.39808515250603 0.5 L 87.39808515250603 -0.5 L 25 -0.5 Z M 120.51527265250603 0.5 L 182.91335780501205 0.5 L 182.91335780501205 3.5 L 189.91335780501205 0 L 182.91335780501205 -3.5 L 182.91335780501205 -0.5 L 120.51527265250603 -0.5 Z"/><text text-anchor="middle" pointer-events="none" font-size="8px" fill="#000000" x="103.95667890250603" y="3" font-family="sans-serif">normal</text></g><g class="relationship" transform="translate(190.02179162395223 231.9572107680936) rotate(304.3639643571284)"><path class="outline" fill="#A5ABB6" stroke="none" d="M 25 0.5 L 48.27584606228913 0.5 L 48.27584606228913 -0.5 L 25 -0.5 Z M 81.39303356228913 0.5 L 104.66887962457827 0.5 L 104.66887962457827 3.5 L 111.66887962457827 0 L 104.66887962457827 -3.5 L 104.66887962457827 -0.5 L 81.39303356228913 -0.5 Z"/><text text-anchor="middle" pointer-events="none" font-size="8px" fill="#000000" x="64.83443981228913" y="3" font-family="sans-serif">normal</text></g><g class="relationship" transform="translate(190.02179162395223 231.9572107680936) rotate(492.39956248116846)"><path class="outline" fill="#A5ABB6" stroke="none" d="M 25 0.5 L 72.33092703610296 0.5 L 72.33092703610296 -0.5 L 25 -0.5 Z M 105.44811453610296 0.5 L 152.77904157220593 0.5 L 152.77904157220593 3.5 L 159.77904157220593 0 L 152.77904157220593 -3.5 L 152.77904157220593 -0.5 L 105.44811453610296 -0.5 Z"/><text text-anchor="middle" pointer-events="none" font-size="8px" fill="#000000" x="88.88952078610296" y="3" transform="rotate(180 88.88952078610296 0)" font-family="sans-serif">normal</text></g><g class="relationship" transform="translate(190.02179162395223 231.9572107680936) rotate(520.9871720807126)"><path class="outline" fill="#A5ABB6" stroke="none" d="M 25 0.5 L 76.56069924247595 0.5 L 76.56069924247595 -0.5 L 25 -0.5 Z M 109.67788674247595 0.5 L 161.2385859849519 0.5 L 161.2385859849519 3.5 L 168.2385859849519 0 L 161.2385859849519 -3.5 L 161.2385859849519 -0.5 L 109.67788674247595 -0.5 Z"/><text text-anchor="middle" pointer-events="none" font-size="8px" fill="#000000" x="93.11929299247595" y="3" transform="rotate(180 93.11929299247595 0)" font-family="sans-serif">normal</text></g><g class="relationship" transform="translate(190.02179162395223 231.9572107680936) rotate(477.87407907548993)"><path class="outline" fill="#A5ABB6" stroke="none" d="M 25 0.5 L 33.90770680765577 0.5 L 33.90770680765577 -0.5 L 25 -0.5 Z M 67.02489430765577 0.5 L 75.93260111531154 0.5 L 75.93260111531154 3.5 L 82.93260111531154 0 L 75.93260111531154 -3.5 L 75.93260111531154 -0.5 L 67.02489430765577 -0.5 Z"/><text text-anchor="middle" pointer-events="none" font-size="8px" fill="#000000" x="50.46630055765577" y="3" transform="rotate(180 50.46630055765577 0)" font-family="sans-serif">normal</text></g><g class="relationship" transform="translate(190.02179162395223 231.9572107680936) rotate(323.324627713715)"><path class="outline" fill="#A5ABB6" stroke="none" d="M 25 0.5 L 71.44287271440093 0.5 L 71.44287271440093 -0.5 L 25 -0.5 Z M 104.56006021440093 0.5 L 151.00293292880187 0.5 L 151.00293292880187 3.5 L 158.00293292880187 0 L 151.00293292880187 -3.5 L 151.00293292880187 -0.5 L 104.56006021440093 -0.5 Z"/><text text-anchor="middle" pointer-events="none" font-size="8px" fill="#000000" x="88.00146646440093" y="3" font-family="sans-serif">normal</text></g><g class="relationship" transform="translate(190.02179162395223 231.9572107680936) rotate(282.92897959796335)"><path class="outline" fill="#A5ABB6" stroke="none" d="M 25 0.5 L 60.047158951019426 0.5 L 60.047158951019426 -0.5 L 25 -0.5 Z M 93.16434645101943 0.5 L 128.21150540203885 0.5 L 128.21150540203885 3.5 L 135.21150540203885 0 L 128.21150540203885 -3.5 L 128.21150540203885 -0.5 L 93.16434645101943 -0.5 Z"/><text text-anchor="middle" pointer-events="none" font-size="8px" fill="#000000" x="76.60575270101943" y="3" font-family="sans-serif">normal</text></g><g class="relationship" transform="translate(190.02179162395223 231.9572107680936) rotate(337.9693474019741)"><path class="outline" fill="#A5ABB6" stroke="none" d="M 25 0.5 L 44.79218630407969 0.5 L 44.79218630407969 -0.5 L 25 -0.5 Z M 77.90937380407969 0.5 L 97.70156010815938 0.5 L 97.70156010815938 3.5 L 104.70156010815938 0 L 97.70156010815938 -3.5 L 97.70156010815938 -0.5 L 77.90937380407969 -0.5 Z"/><text text-anchor="middle" pointer-events="none" font-size="8px" fill="#000000" x="61.35078005407969" y="3" font-family="sans-serif">normal</text></g></g><g class="layer nodes"><g class="node" transform="translate(414.6621418500622,266.7471552662734)"><circle class="outline" cx="0" cy="0" r="25" fill="#4C8EDA" stroke="#2870c2" stroke-width="2px"/><text text-anchor="middle" pointer-events="none" font-family="sans-serif" dy="1.5625" font-size="25" fill="#FFFFFF"/><text text-anchor="middle" pointer-events="none" y="5" font-size="10px" fill="#FFFFFF" font-family="sans-serif"> 017</text></g><g class="node" transform="translate(193.54265192540703,172.13164493332243)"><circle class="outline" cx="0" cy="0" r="25" fill="#4C8EDA" stroke="#2870c2" stroke-width="2px"/><text text-anchor="middle" pointer-events="none" font-family="sans-serif" dy="1.5625" font-size="25" fill="#FFFFFF"/><text text-anchor="middle" pointer-events="none" y="5" font-size="10px" fill="#FFFFFF" font-family="sans-serif"> 019</text></g><g class="node" transform="translate(357.5822364402636,286.33483057890237)"><circle class="outline" cx="0" cy="0" r="25" fill="#4C8EDA" stroke="#2870c2" stroke-width="2px"/><text text-anchor="middle" pointer-events="none" font-family="sans-serif" dy="1.5625" font-size="25" fill="#FFFFFF"/><text text-anchor="middle" pointer-events="none" y="5" font-size="10px" fill="#FFFFFF" font-family="sans-serif"> 021</text></g><g class="node" transform="translate(126.74829627344366,-76.1266485232528)"><circle class="outline" cx="0" cy="0" r="25" fill="#FFC454" stroke="#d7a013" stroke-width="2px"/><text text-anchor="middle" pointer-events="none" font-family="sans-serif" dy="1.5625" font-size="25" fill="#604A0E"/><text text-anchor="middle" pointer-events="none" y="5" font-size="10px" fill="#604A0E" font-family="sans-serif"> 023</text></g><g class="node" transform="translate(7.057881962732119,-29.973228392431732)"><circle class="outline" cx="0" cy="0" r="25" fill="#FFC454" stroke="#d7a013" stroke-width="2px"/><text text-anchor="middle" pointer-events="none" font-family="sans-serif" dy="1.5625" font-size="25" fill="#604A0E"/><text text-anchor="middle" pointer-events="none" y="5" font-size="10px" fill="#604A0E" font-family="sans-serif"> 025</text></g><g class="node" transform="translate(118.01096930164054,5.271819252058485)"><circle class="outline" cx="0" cy="0" r="25" fill="#FFC454" stroke="#d7a013" stroke-width="2px"/><text text-anchor="middle" pointer-events="none" font-family="sans-serif" dy="1.5625" font-size="25" fill="#604A0E"/><text text-anchor="middle" pointer-events="none" y="5" font-size="10px" fill="#604A0E" font-family="sans-serif"> 027</text></g><g class="node" transform="translate(62.868660756352654,-171.47298105080782)"><circle class="outline" cx="0" cy="0" r="25" fill="#FFC454" stroke="#d7a013" stroke-width="2px"/><text text-anchor="middle" pointer-events="none" font-family="sans-serif" dy="1.5625" font-size="25" fill="#604A0E"/><text text-anchor="middle" pointer-events="none" y="5" font-size="10px" fill="#604A0E" font-family="sans-serif"> 029</text></g><g class="node" transform="translate(164.67095279942686,48.32289707010881)"><circle class="outline" cx="0" cy="0" r="25" fill="#FFC454" stroke="#d7a013" stroke-width="2px"/><text text-anchor="middle" pointer-events="none" font-family="sans-serif" dy="1.5625" font-size="25" fill="#604A0E"/><text text-anchor="middle" pointer-events="none" y="5" font-size="10px" fill="#604A0E" font-family="sans-serif"> 031</text></g><g class="node" transform="translate(277.1472364970781,-56.43036787721823)"><circle class="outline" cx="0" cy="0" r="25" fill="#F16667" stroke="#eb2728" stroke-width="2px"/><text text-anchor="middle" pointer-events="none" font-family="sans-serif" dy="1.5625" font-size="25" fill="#FFFFFF"/><text text-anchor="middle" pointer-events="none" y="5" font-size="10px" fill="#FFFFFF" font-family="sans-serif"> 033</text></g><g class="node" transform="translate(186.8935688449641,-167.4453653583589)"><circle class="outline" cx="0" cy="0" r="25" fill="#DA7194" stroke="#cc3c6c" stroke-width="2px"/><text text-anchor="middle" pointer-events="none" font-family="sans-serif" dy="1.5625" font-size="25" fill="#FFFFFF"/><text text-anchor="middle" pointer-events="none" y="5" font-size="10px" fill="#FFFFFF" font-family="sans-serif"> 018</text></g><g class="node" transform="translate(300.9741056936302,-169.8981299519882)"><circle class="outline" cx="0" cy="0" r="25" fill="#DA7194" stroke="#cc3c6c" stroke-width="2px"/><text text-anchor="middle" pointer-events="none" font-family="sans-serif" dy="1.5625" font-size="25" fill="#FFFFFF"/><text text-anchor="middle" pointer-events="none" y="5" font-size="10px" fill="#FFFFFF" font-family="sans-serif"> 020</text></g><g class="node" transform="translate(373.7252303730147,22.139629553005165)"><circle class="outline" cx="0" cy="0" r="25" fill="#DA7194" stroke="#cc3c6c" stroke-width="2px"/><text text-anchor="middle" pointer-events="none" font-family="sans-serif" dy="1.5625" font-size="25" fill="#FFFFFF"/><text text-anchor="middle" pointer-events="none" y="5" font-size="10px" fill="#FFFFFF" font-family="sans-serif"> 022</text></g><g class="node" transform="translate(-1.1690219827460107,60.04679301265955)"><circle class="outline" cx="0" cy="0" r="25" fill="#FFC454" stroke="#d7a013" stroke-width="2px"/><text text-anchor="middle" pointer-events="none" font-family="sans-serif" dy="1.5625" font-size="25" fill="#604A0E"/><text text-anchor="middle" pointer-events="none" y="5" font-size="10px" fill="#604A0E" font-family="sans-serif"> 024</text></g><g class="node" transform="translate(116.62511341052317,-164.43057902992058)"><circle class="outline" cx="0" cy="0" r="25" fill="#FFC454" stroke="#d7a013" stroke-width="2px"/><text text-anchor="middle" pointer-events="none" font-family="sans-serif" dy="1.5625" font-size="25" fill="#604A0E"/><text text-anchor="middle" pointer-events="none" y="5" font-size="10px" fill="#604A0E" font-family="sans-serif"> 026</text></g><g class="node" transform="translate(405.7594876976783,-17.228483822552846)"><circle class="outline" cx="0" cy="0" r="25" fill="#DA7194" stroke="#cc3c6c" stroke-width="2px"/><text text-anchor="middle" pointer-events="none" font-family="sans-serif" dy="1.5625" font-size="25" fill="#FFFFFF"/><text text-anchor="middle" pointer-events="none" y="5" font-size="10px" fill="#FFFFFF" font-family="sans-serif"> 028</text></g><g class="node" transform="translate(330.6927117162358,14.746315211749966)"><circle class="outline" cx="0" cy="0" r="25" fill="#DA7194" stroke="#cc3c6c" stroke-width="2px"/><text text-anchor="middle" pointer-events="none" font-family="sans-serif" dy="1.5625" font-size="25" fill="#FFFFFF"/><text text-anchor="middle" pointer-events="none" y="5" font-size="10px" fill="#FFFFFF" font-family="sans-serif"> 030</text></g><g class="node" transform="translate(214.69998076031425,-57.87677288447132)"><circle class="outline" cx="0" cy="0" r="25" fill="#F16667" stroke="#eb2728" stroke-width="2px"/><text text-anchor="middle" pointer-events="none" font-family="sans-serif" dy="1.5625" font-size="25" fill="#FFFFFF"/><text text-anchor="middle" pointer-events="none" y="5" font-size="10px" fill="#FFFFFF" font-family="sans-serif"> 032</text></g><g class="node" transform="translate(225.86801231083865,75.807363103568)"><circle class="outline" cx="0" cy="0" r="25" fill="#4C8EDA" stroke="#2870c2" stroke-width="2px"/><text text-anchor="middle" pointer-events="none" font-family="sans-serif" dy="1.5625" font-size="25" fill="#FFFFFF"/><text text-anchor="middle" pointer-events="none" y="5" font-size="10px" fill="#FFFFFF" font-family="sans-serif"> 002</text></g><g class="node" transform="translate(139.56006845543448,327.36717292289603)"><circle class="outline" cx="0" cy="0" r="25" fill="#D9C8AE" stroke="#c0a378" stroke-width="2px"/><text text-anchor="middle" pointer-events="none" font-family="sans-serif" dy="1.5625" font-size="25" fill="#604A0E"/><text text-anchor="middle" pointer-events="none" y="5" font-size="10px" fill="#604A0E" font-family="sans-serif"> 004</text></g><g class="node" transform="translate(65.42588468005493,368.4092322891055)"><circle class="outline" cx="0" cy="0" r="25" fill="#D9C8AE" stroke="#c0a378" stroke-width="2px"/><text text-anchor="middle" pointer-events="none" font-family="sans-serif" dy="1.5625" font-size="25" fill="#604A0E"/><text text-anchor="middle" pointer-events="none" y="5" font-size="10px" fill="#604A0E" font-family="sans-serif"> 006</text></g><g class="node" transform="translate(333.38552383867915,71.84914835870333)"><circle class="outline" cx="0" cy="0" r="25" fill="#DA7194" stroke="#cc3c6c" stroke-width="2px"/><text text-anchor="middle" pointer-events="none" font-family="sans-serif" dy="1.5625" font-size="25" fill="#FFFFFF"/><text text-anchor="middle" pointer-events="none" y="5" font-size="10px" fill="#FFFFFF" font-family="sans-serif"> 008</text></g><g class="node" transform="translate(75.1958003674475,269.13524009618175)"><circle class="outline" cx="0" cy="0" r="25" fill="#D9C8AE" stroke="#c0a378" stroke-width="2px"/><text text-anchor="middle" pointer-events="none" font-family="sans-serif" dy="1.5625" font-size="25" fill="#604A0E"/><text text-anchor="middle" pointer-events="none" y="5" font-size="10px" fill="#604A0E" font-family="sans-serif"> 010</text></g><g class="node" transform="translate(353.7066271254821,226.78654989434904)"><circle class="outline" cx="0" cy="0" r="25" fill="#4C8EDA" stroke="#2870c2" stroke-width="2px"/><text text-anchor="middle" pointer-events="none" font-family="sans-serif" dy="1.5625" font-size="25" fill="#FFFFFF"/><text text-anchor="middle" pointer-events="none" y="5" font-size="10px" fill="#FFFFFF" font-family="sans-serif"> 012</text></g><g class="node" transform="translate(243.52330967803894,-187.1147865637222)"><circle class="outline" cx="0" cy="0" r="25" fill="#DA7194" stroke="#cc3c6c" stroke-width="2px"/><text text-anchor="middle" pointer-events="none" font-family="sans-serif" dy="1.5625" font-size="25" fill="#FFFFFF"/><text text-anchor="middle" pointer-events="none" y="5" font-size="10px" fill="#FFFFFF" font-family="sans-serif"> 014</text></g><g class="node" transform="translate(-69.176652899744,390.9027115559486)"><circle class="outline" cx="0" cy="0" r="25" fill="#D9C8AE" stroke="#c0a378" stroke-width="2px"/><text text-anchor="middle" pointer-events="none" font-family="sans-serif" dy="1.5625" font-size="25" fill="#604A0E"/><text text-anchor="middle" pointer-events="none" y="5" font-size="10px" fill="#604A0E" font-family="sans-serif"> 016</text></g><g class="node" transform="translate(310.2529733292614,183.30582188519114)"><circle class="outline" cx="0" cy="0" r="25" fill="#8DCC93" stroke="#5db665" stroke-width="2px"/><text text-anchor="middle" pointer-events="none" font-family="sans-serif" dy="1.5625" font-size="25" fill="#604A0E"/><text text-anchor="middle" pointer-events="none" y="5" font-size="10px" fill="#604A0E" font-family="sans-serif"> 001</text></g><g class="node" transform="translate(336.7960823126838,122.65313466219862)"><circle class="outline" cx="0" cy="0" r="25" fill="#8DCC93" stroke="#5db665" stroke-width="2px"/><text text-anchor="middle" pointer-events="none" font-family="sans-serif" dy="1.5625" font-size="25" fill="#604A0E"/><text text-anchor="middle" pointer-events="none" y="5" font-size="10px" fill="#604A0E" font-family="sans-serif"> 003</text></g><g class="node" transform="translate(7.325209037356745,294.9104459879213)"><circle class="outline" cx="0" cy="0" r="25" fill="#D9C8AE" stroke="#c0a378" stroke-width="2px"/><text text-anchor="middle" pointer-events="none" font-family="sans-serif" dy="1.5625" font-size="25" fill="#604A0E"/><text text-anchor="middle" pointer-events="none" y="5" font-size="10px" fill="#604A0E" font-family="sans-serif"> 005</text></g><g class="node" transform="translate(267.1642597814067,119.14133305394566)"><circle class="outline" cx="0" cy="0" r="25" fill="#8DCC93" stroke="#5db665" stroke-width="2px"/><text text-anchor="middle" pointer-events="none" font-family="sans-serif" dy="1.5625" font-size="25" fill="#604A0E"/><text text-anchor="middle" pointer-events="none" y="5" font-size="10px" fill="#604A0E" font-family="sans-serif"> 007</text></g><g class="node" transform="translate(424.2950107541004,36.396046847697484)"><circle class="outline" cx="0" cy="0" r="25" fill="#DA7194" stroke="#cc3c6c" stroke-width="2px"/><text text-anchor="middle" pointer-events="none" font-family="sans-serif" dy="1.5625" font-size="25" fill="#FFFFFF"/><text text-anchor="middle" pointer-events="none" y="5" font-size="10px" fill="#FFFFFF" font-family="sans-serif"> 009</text></g><g class="node" transform="translate(295.70371762904136,241.2968544967659)"><circle class="outline" cx="0" cy="0" r="25" fill="#4C8EDA" stroke="#2870c2" stroke-width="2px"/><text text-anchor="middle" pointer-events="none" font-family="sans-serif" dy="1.5625" font-size="25" fill="#FFFFFF"/><text text-anchor="middle" pointer-events="none" y="5" font-size="10px" fill="#FFFFFF" font-family="sans-serif"> 011</text></g><g class="node" transform="translate(250.59227709036873,195.5525528073861)"><circle class="outline" cx="0" cy="0" r="25" fill="#4C8EDA" stroke="#2870c2" stroke-width="2px"/><text text-anchor="middle" pointer-events="none" font-family="sans-serif" dy="1.5625" font-size="25" fill="#FFFFFF"/><text text-anchor="middle" pointer-events="none" y="5" font-size="10px" fill="#FFFFFF" font-family="sans-serif"> 013</text></g><g class="node" transform="translate(392.3121693955294,-76.05702471518276)"><circle class="outline" cx="0" cy="0" r="25" fill="#DA7194" stroke="#cc3c6c" stroke-width="2px"/><text text-anchor="middle" pointer-events="none" font-family="sans-serif" dy="1.5625" font-size="25" fill="#FFFFFF"/><text text-anchor="middle" pointer-events="none" y="5" font-size="10px" fill="#FFFFFF" font-family="sans-serif"> 015</text></g><g class="node" transform="translate(190.02179162395223,231.9572107680936)"><circle class="outline" cx="0" cy="0" r="25" fill="#ECB5C9" stroke="#da7298" stroke-width="2px"/><text text-anchor="middle" pointer-events="none" font-family="sans-serif" dy="1.5625" font-size="25" fill="#604A0E"/><text text-anchor="middle" pointer-events="none" y="5" font-size="10px" fill="#604A0E" font-family="sans-serif"> 000</text></g></g></svg>